<?xml version="1.0" encoding="UTF-8"?>
<svg width="661px" height="90px" viewBox="0 0 661 90" version="1.1" xmlns="http://www.w3.org/2000/svg" xmlns:xlink="http://www.w3.org/1999/xlink">
    <!-- Generator: Sketch 48.2 (47327) - http://www.bohemiancoding.com/sketch -->
    <title>en_horizontal_cef_logo</title>
    <desc>Created with Sketch.</desc>
    <defs></defs>
    <g id="Page-1" stroke="none" stroke-width="1" fill="none" fill-rule="evenodd">
        <g id="en_horizontal_cef_logo">
            <polygon id="Fill-1" fill="#FFFFFF" points="0 89.189 137.789 89.189 137.789 0 0 0"></polygon>
            <polyline id="Fill-3" fill="#000000" points="65.959 20.23 68.866 18.17 71.773 20.23 70.667 16.898 73.62 14.839 69.98 14.839 68.866 11.467 67.752 14.843 64.113 14.839 67.064 16.898 65.959 20.23"></polyline>
            <polyline id="Fill-4" fill="#000000" points="50.912 24.155 53.819 22.095 56.725 24.155 55.621 20.824 58.572 18.764 54.931 18.764 53.817 15.388 52.704 18.768 49.065 18.764 52.016 20.824 50.912 24.155"></polyline>
            <polyline id="Fill-5" fill="#000000" points="42.81 26.102 41.696 29.48 38.057 29.477 41.009 31.537 39.902 34.868 42.81 32.809 45.718 34.868 44.611 31.537 47.562 29.477 43.924 29.477 42.81 26.102"></polyline>
            <polyline id="Fill-6" fill="#000000" points="38.771 47.398 41.677 49.459 40.572 46.127 43.523 44.067 39.886 44.067 38.771 40.691 37.657 44.074 34.017 44.067 36.971 46.127 35.864 49.459 38.771 47.398"></polyline>
            <polyline id="Fill-7" fill="#000000" points="43.924 58.702 42.81 55.326 41.696 58.705 38.057 58.702 41.009 60.762 39.902 64.094 42.81 62.029 45.718 64.094 44.611 60.762 47.562 58.702 43.924 58.702"></polyline>
            <polyline id="Fill-8" fill="#000000" points="54.955 69.411 53.841 66.039 52.728 69.415 49.088 69.411 52.039 71.472 50.934 74.803 53.843 72.743 56.748 74.803 55.643 71.472 58.595 69.411 54.955 69.411"></polyline>
            <polyline id="Fill-9" fill="#000000" points="69.982 73.292 68.868 69.916 67.756 73.296 64.115 73.292 67.066 75.353 65.962 78.684 68.87 76.624 71.775 78.684 70.669 75.353 73.622 73.292 69.982 73.292"></polyline>
            <polyline id="Fill-10" fill="#000000" points="85.009 69.411 83.897 66.039 82.781 69.415 79.144 69.411 82.094 71.472 80.989 74.803 83.897 72.743 86.805 74.803 85.696 71.472 88.649 69.411 85.009 69.411"></polyline>
            <polyline id="Fill-11" fill="#000000" points="96.043 58.702 94.928 55.326 93.811 58.705 90.175 58.702 93.128 60.762 92.019 64.094 94.928 62.029 97.835 64.094 96.726 60.762 99.68 58.702 96.043 58.702"></polyline>
            <polyline id="Fill-12" fill="#000000" points="103.677 44.026 100.036 44.026 98.921 40.651 97.809 44.03 94.168 44.026 97.121 46.087 96.017 49.418 98.921 47.354 101.828 49.418 100.724 46.087 103.677 44.026"></polyline>
            <polyline id="Fill-13" fill="#000000" points="92.019 34.824 94.928 32.765 97.835 34.824 96.726 31.493 99.68 29.437 96.043 29.437 94.928 26.061 93.811 29.44 90.175 29.437 93.128 31.493 92.019 34.824"></polyline>
            <polyline id="Fill-14" fill="#000000" points="83.938 15.392 82.827 18.771 79.186 18.764 82.136 20.827 81.031 24.159 83.942 22.095 86.846 24.159 85.742 20.827 88.695 18.764 85.051 18.764 83.938 15.392"></polyline>
            <path d="M170.362305,31.9892578 C170.469727,32.282228 170.459962,32.5678697 170.333008,32.8461914 C170.206054,33.1245131 169.996095,33.3173823 169.703125,33.4248047 C168.238274,33.9326197 166.812507,34.1865234 165.425781,34.1865234 C162.486313,34.1865234 160.135263,33.2490328 158.372559,31.3740234 C156.609854,29.4990141 155.728516,26.9990391 155.728516,23.8740234 C155.728516,20.7490078 156.607413,18.2514742 158.365234,16.3813477 C160.123056,14.5112211 162.476548,13.5761719 165.425781,13.5761719 C166.812507,13.5761719 168.238274,13.8300756 169.703125,14.3378906 C169.996095,14.445313 170.206054,14.6381822 170.333008,14.9165039 C170.459962,15.1948256 170.469727,15.4804673 170.362305,15.7734375 C170.254882,16.056642 170.062013,16.2617181 169.783691,16.3886719 C169.50537,16.5156256 169.219728,16.5253912 168.926758,16.4179688 C167.813471,16.0078104 166.64649,15.8027344 165.425781,15.8027344 C163.091785,15.8027344 161.265632,16.5156179 159.947266,17.9414062 C158.6289,19.3671946 157.969727,21.3447139 157.969727,23.8740234 C157.969727,26.403333 158.6289,28.3808522 159.947266,29.8066406 C161.265632,31.232429 163.091785,31.9453125 165.425781,31.9453125 C165.962893,31.9453125 166.517087,31.8964849 167.088379,31.7988281 C167.659671,31.7011714 168.08203,31.6108403 168.355469,31.527832 C168.628908,31.4448238 168.819335,31.3789065 168.926758,31.3300781 C169.219728,31.2226557 169.507811,31.2348626 169.791016,31.3666992 C170.07422,31.4985358 170.264648,31.7060533 170.362305,31.9892578 Z M186.958899,26.6572266 C186.958899,28.8056748 186.277753,30.5976491 184.915442,32.0332031 C183.55313,33.4687572 181.85637,34.1865234 179.82511,34.1865234 C177.793849,34.1865234 176.09953,33.4785227 174.742102,32.0625 C173.384673,30.6464773 172.705969,28.8789168 172.705969,26.7597656 C172.705969,25.3535086 173.016024,24.0742245 173.636145,22.921875 C174.256265,21.7695255 175.108307,20.8662142 176.192297,20.2119141 C177.276287,19.5576139 178.487212,19.2304688 179.82511,19.2304688 C181.85637,19.2304688 183.55313,19.9384695 184.915442,21.3544922 C186.277753,22.7705149 186.958899,24.5380753 186.958899,26.6572266 Z M184.717688,26.6572266 C184.717688,25.1533128 184.256267,23.9130908 183.33341,22.9365234 C182.410554,21.9599561 181.241132,21.4716797 179.82511,21.4716797 C178.409087,21.4716797 177.239665,21.9697216 176.316809,22.9658203 C175.393953,23.961919 174.932531,25.2265548 174.932531,26.7597656 C174.932531,28.2636794 175.393953,29.5039014 176.316809,30.4804688 C177.239665,31.4570361 178.409087,31.9453125 179.82511,31.9453125 C181.241132,31.9453125 182.410554,31.4472706 183.33341,30.4511719 C184.256267,29.4550731 184.717688,28.1904374 184.717688,26.6572266 Z M199.45393,25.9394531 C199.678541,26.1542979 199.790844,26.4130844 199.790844,26.7158203 C199.790844,27.0185562 199.680982,27.2822254 199.461254,27.5068359 C199.241527,27.7314464 198.975416,27.84375 198.662915,27.84375 L191.822094,27.84375 C191.509593,27.84375 191.245923,27.7338878 191.031079,27.5141602 C190.816234,27.2944325 190.708813,27.0283219 190.708813,26.7158203 C190.708813,26.4033187 190.816234,26.1396495 191.031079,25.9248047 C191.245923,25.7099599 191.509593,25.6025391 191.822094,25.6025391 L198.662915,25.6025391 C198.975416,25.6025391 199.239085,25.7148426 199.45393,25.9394531 Z M216.768298,14.7626953 C216.934314,15.0166028 216.983142,15.2949204 216.914782,15.5976562 C216.846422,15.9003921 216.68285,16.1347648 216.424059,16.3007812 C216.165269,16.4667977 215.88451,16.5156253 215.581774,16.4472656 C213.335669,15.9492163 211.572991,15.7783195 210.293688,15.9345703 C209.766342,15.9931644 209.28539,16.1176748 208.850817,16.3081055 C208.416245,16.4985361 208.042713,16.7915019 207.730212,17.1870117 C207.41771,17.5825215 207.261462,18.0439427 207.261462,18.5712891 L207.261462,21.3984375 L215.230212,21.3984375 C215.532947,21.3984375 215.794175,21.5082997 216.013903,21.7280273 C216.233631,21.947755 216.343493,22.2138656 216.343493,22.5263672 L216.343493,32.8535156 C216.343493,33.1660172 216.233631,33.4296864 216.013903,33.6445312 C215.794175,33.8593761 215.532947,33.9667969 215.230212,33.9667969 C214.927476,33.9667969 214.666248,33.8593761 214.44652,33.6445312 C214.226793,33.4296864 214.11693,33.1660172 214.11693,32.8535156 L214.11693,23.6396484 L207.27611,23.6396484 L207.27611,32.8535156 C207.27611,33.1660172 207.168689,33.4296864 206.953844,33.6445312 C206.739,33.8593761 206.47533,33.9667969 206.162829,33.9667969 C205.850327,33.9667969 205.586658,33.8593761 205.371813,33.6445312 C205.156968,33.4296864 205.049548,33.1660172 205.049548,32.8535156 L205.034899,23.6396484 L203.452868,23.6396484 C203.150132,23.6396484 202.888904,23.5297863 202.669176,23.3100586 C202.449449,23.0903309 202.339587,22.8291031 202.339587,22.5263672 C202.339587,22.2138656 202.449449,21.947755 202.669176,21.7280273 C202.888904,21.5082997 203.150132,21.3984375 203.452868,21.3984375 L205.034899,21.3984375 L205.034899,18.5712891 C205.034899,17.2724544 205.488996,16.176274 206.397204,15.2827148 C207.305411,14.3891557 208.511454,13.8642586 210.015368,13.7080078 C211.148186,13.6201167 212.105208,13.6176754 212.886462,13.7006836 C213.667716,13.7836918 214.732158,13.9716782 216.079821,14.2646484 C216.382557,14.3330082 216.612047,14.4990221 216.768298,14.7626953 Z M233.745751,24.9580078 L233.745751,32.8535156 C233.745751,33.1660172 233.635889,33.4296864 233.416161,33.6445312 C233.196433,33.8593761 232.935206,33.9667969 232.63247,33.9667969 C232.329734,33.9667969 232.068506,33.8593761 231.848778,33.6445312 C231.629051,33.4296864 231.519188,33.1660172 231.519188,32.8535156 L231.519188,24.9580078 C231.519188,23.7372986 231.265285,22.851077 230.75747,22.2993164 C230.249655,21.7475558 229.434233,21.4716797 228.311181,21.4716797 C227.637349,21.4716797 226.965969,21.6059557 226.29702,21.8745117 C225.628072,22.1430677 225.115382,22.4091784 224.758934,22.6728516 C224.402487,22.9365248 224.092432,23.200194 223.828759,23.4638672 L223.828759,32.8535156 C223.828759,33.1660172 223.721338,33.4296864 223.506493,33.6445312 C223.291648,33.8593761 223.027979,33.9667969 222.715477,33.9667969 C222.402976,33.9667969 222.139307,33.8593761 221.924462,33.6445312 C221.709617,33.4296864 221.602196,33.1660172 221.602196,32.8535156 L221.602196,20.578125 C221.602196,20.2656234 221.709617,20.0019542 221.924462,19.7871094 C222.139307,19.5722646 222.402976,19.4648438 222.715477,19.4648438 C223.027979,19.4648438 223.291648,19.5722646 223.506493,19.7871094 C223.721338,20.0019542 223.828759,20.2656234 223.828759,20.578125 L223.828759,20.7246094 C225.274078,19.7382763 226.768204,19.2451172 228.311181,19.2451172 C230.069002,19.2451172 231.414203,19.7382763 232.346825,20.7246094 C233.279447,21.7109424 233.745751,23.1220611 233.745751,24.9580078 Z M248.4234,23.2734375 L248.4234,32.9121094 C248.4234,33.2050796 248.31842,33.4541005 248.108458,33.6591797 C247.898496,33.8642588 247.647034,33.9667969 247.354064,33.9667969 C247.109922,33.9667969 246.892639,33.891114 246.702208,33.7397461 C246.511778,33.5883781 246.382384,33.3857435 246.314025,33.1318359 C244.575735,33.8349645 243.208561,34.1865234 242.212462,34.1865234 C240.894096,34.1865234 239.807681,33.7666058 238.953185,32.9267578 C238.098688,32.0869099 237.671446,31.0273501 237.671446,29.7480469 C237.671446,29.2304662 237.749571,28.7666036 237.905821,28.3564453 C238.062072,27.946287 238.264707,27.6044936 238.513732,27.3310547 C238.762756,27.0576158 239.075253,26.8183604 239.451232,26.6132812 C239.82721,26.4082021 240.205624,26.2470709 240.586485,26.1298828 C240.967347,26.0126947 241.39703,25.9101567 241.875548,25.8222656 L246.299376,25.0019531 L246.299376,23.2734375 C246.299376,22.7460911 246.003969,22.2919941 245.413146,21.9111328 C244.822322,21.5302715 244.190004,21.3398438 243.516173,21.3398438 C242.803279,21.3398438 241.401926,21.5595681 239.312071,21.9990234 C239.028867,22.0576175 238.765198,22.0087898 238.521056,21.8525391 C238.276914,21.6962883 238.120666,21.4765639 238.052306,21.1933594 C237.993712,20.9101548 238.042539,20.6440442 238.19879,20.3950195 C238.355041,20.1459948 238.574765,19.9921878 238.85797,19.9335938 C241.104075,19.4746071 242.656794,19.2451172 243.516173,19.2451172 C244.316958,19.2451172 245.088435,19.4111312 245.830626,19.7431641 C246.572817,20.075197 247.190487,20.5537078 247.683653,21.1787109 C248.17682,21.8037141 248.4234,22.5019493 248.4234,23.2734375 Z M246.299376,30.8320312 L246.299376,27.140625 L242.256407,27.9023438 C241.270074,28.0878916 240.610901,28.3149401 240.278868,28.5834961 C239.946835,28.8520521 239.780821,29.2402318 239.780821,29.7480469 C239.780821,30.4511754 240.002987,31.0151346 240.447325,31.4399414 C240.891663,31.8647482 241.480037,32.0771484 242.212462,32.0771484 C243.159732,32.0771484 244.522023,31.6621135 246.299376,30.8320312 Z M265.386204,24.9580078 L265.386204,32.8535156 C265.386204,33.1660172 265.276342,33.4296864 265.056615,33.6445312 C264.836887,33.8593761 264.575659,33.9667969 264.272923,33.9667969 C263.970187,33.9667969 263.708959,33.8593761 263.489232,33.6445312 C263.269504,33.4296864 263.159642,33.1660172 263.159642,32.8535156 L263.159642,24.9580078 C263.159642,23.7372986 262.905738,22.851077 262.397923,22.2993164 C261.890108,21.7475558 261.074687,21.4716797 259.951634,21.4716797 C259.277803,21.4716797 258.606423,21.6059557 257.937474,21.8745117 C257.268525,22.1430677 256.755835,22.4091784 256.399388,22.6728516 C256.042941,22.9365248 255.732885,23.200194 255.469212,23.4638672 L255.469212,32.8535156 C255.469212,33.1660172 255.361791,33.4296864 255.146947,33.6445312 C254.932102,33.8593761 254.668433,33.9667969 254.355931,33.9667969 C254.043429,33.9667969 253.77976,33.8593761 253.564915,33.6445312 C253.350071,33.4296864 253.24265,33.1660172 253.24265,32.8535156 L253.24265,20.578125 C253.24265,20.2656234 253.350071,20.0019542 253.564915,19.7871094 C253.77976,19.5722646 254.043429,19.4648438 254.355931,19.4648438 C254.668433,19.4648438 254.932102,19.5722646 255.146947,19.7871094 C255.361791,20.0019542 255.469212,20.2656234 255.469212,20.578125 L255.469212,20.7246094 C256.914532,19.7382763 258.408658,19.2451172 259.951634,19.2451172 C261.709455,19.2451172 263.054657,19.7382763 263.987279,20.7246094 C264.919901,21.7109424 265.386204,23.1220611 265.386204,24.9580078 Z M280.444713,32.3554688 C280.522838,32.648439 280.481334,32.9291979 280.320201,33.1977539 C280.159067,33.4663099 279.932019,33.6347653 279.639048,33.703125 C279.140999,33.8300788 278.782116,33.9204099 278.562388,33.9741211 C278.342661,34.0278323 278.052136,34.0766599 277.690806,34.1206055 C277.329476,34.164551 276.943738,34.1865234 276.53358,34.1865234 C274.394897,34.1865234 272.66884,33.4785227 271.355357,32.0625 C270.041874,30.6464773 269.385142,28.8593858 269.385142,26.7011719 C269.385142,24.542958 270.041874,22.7558665 271.355357,21.3398438 C272.66884,19.923821 274.394897,19.2158203 276.53358,19.2158203 C277.539444,19.2158203 278.564824,19.3720687 279.609752,19.6845703 C279.932019,19.7919927 280.171274,19.9775377 280.327525,20.2412109 C280.483776,20.5048841 280.517955,20.7880844 280.430064,21.0908203 C280.351939,21.3837905 280.176159,21.6059563 279.90272,21.7573242 C279.629281,21.9086922 279.346081,21.9404301 279.053111,21.8525391 C278.154669,21.5791002 277.314834,21.4423828 276.53358,21.4423828 C275.0199,21.4423828 273.823623,21.9331006 272.944713,22.9145508 C272.065802,23.896001 271.626353,25.1581954 271.626353,26.7011719 C271.626353,28.2441483 272.065802,29.5063427 272.944713,30.487793 C273.823623,31.4692432 275.0199,31.9599609 276.53358,31.9599609 C276.709362,31.9599609 276.880259,31.9526368 277.046275,31.9379883 C277.212291,31.9233398 277.400278,31.898926 277.61024,31.8647461 C277.820202,31.8305662 277.971568,31.803711 278.064341,31.7841797 C278.157115,31.7646483 278.337778,31.7207035 278.606334,31.6523438 C278.87489,31.583984 279.038462,31.5449219 279.097056,31.5351562 C279.399792,31.4667965 279.680551,31.5107414 279.939341,31.6669922 C280.198132,31.823243 280.366587,32.0527329 280.444713,32.3554688 Z M295.971971,26.3056641 C295.971971,26.5888686 295.876757,26.8305654 295.686326,27.0307617 C295.495895,27.230958 295.263964,27.3359375 294.990525,27.3457031 L285.322556,27.9462891 C285.488573,29.264655 285.993939,30.2827113 286.83867,31.0004883 C287.683401,31.7182653 288.755167,32.0771484 290.054002,32.0771484 C291.020803,32.0771484 291.938763,31.9111345 292.807908,31.5791016 C293.081347,31.4716792 293.354782,31.4716792 293.628221,31.5791016 C293.901659,31.686524 294.092087,31.872069 294.19951,32.1357422 C294.316698,32.4091811 294.32158,32.6801744 294.214158,32.9487305 C294.106736,33.2172865 293.916308,33.4052729 293.642869,33.5126953 C292.539348,33.9619163 291.343071,34.1865234 290.054002,34.1865234 C287.983679,34.1865234 286.318657,33.5346745 285.058885,32.230957 C283.799113,30.9272396 283.169236,29.2402447 283.169236,27.1699219 L283.169236,26.0273438 C283.169236,25.1679645 283.313278,24.3354532 283.601365,23.5297852 C283.889452,22.7241171 284.299605,21.9990267 284.831834,21.3544922 C285.364063,20.7099577 286.054974,20.1948261 286.904588,19.809082 C287.754201,19.4233379 288.696575,19.2304688 289.731736,19.2304688 C291.655574,19.2304688 293.176555,19.8627866 294.294724,21.1274414 C295.412894,22.3920962 295.971971,24.1181531 295.971971,26.3056641 Z M285.278611,25.8515625 L293.81865,25.3242188 C293.515914,22.6679555 292.153623,21.3398438 289.731736,21.3398438 C288.784466,21.3398438 287.971486,21.5595681 287.292771,21.9990234 C286.614057,22.4384788 286.118456,22.9877897 285.805955,23.6469727 C285.493453,24.3061556 285.317674,25.0410116 285.278611,25.8515625 Z M311.425986,14.7919922 L311.425986,32.8535156 C311.425986,33.1660172 311.316124,33.4296864 311.096397,33.6445312 C310.876669,33.8593761 310.615441,33.9667969 310.312705,33.9667969 C309.87325,33.9667969 309.546105,33.7763691 309.33126,33.3955078 C307.798049,33.9228542 306.631069,34.1865234 305.830283,34.1865234 C303.750195,34.1865234 302.072965,33.4980538 300.798545,32.1210938 C299.524125,30.7441337 298.886924,28.9326284 298.886924,26.6865234 C298.886924,24.4501841 299.524125,22.6435616 300.798545,21.2666016 C302.072965,19.8896416 303.750195,19.2011719 305.830283,19.2011719 C306.631069,19.2011719 307.754104,19.4453101 309.199424,19.9335938 L309.199424,14.7919922 C309.199424,14.4892563 309.309286,14.2280284 309.529014,14.0083008 C309.748741,13.7885731 310.009969,13.6787109 310.312705,13.6787109 C310.615441,13.6787109 310.876669,13.7885731 311.096397,14.0083008 C311.316124,14.2280284 311.425986,14.4892563 311.425986,14.7919922 Z M309.199424,31.1103516 L309.199424,22.2626953 C308.662312,22.0576162 308.059291,21.8696298 307.390342,21.6987305 C306.721393,21.5278312 306.201379,21.4423828 305.830283,21.4423828 C304.345901,21.4423828 303.188686,21.9062454 302.358604,22.8339844 C301.528521,23.7617234 301.113486,25.0458902 301.113486,26.6865234 C301.113486,28.3369223 301.528521,29.6259719 302.358604,30.5537109 C303.188686,31.48145 304.345901,31.9453125 305.830283,31.9453125 C306.201379,31.9453125 306.723835,31.8574228 307.397666,31.6816406 C308.071498,31.5058585 308.672077,31.3154307 309.199424,31.1103516 Z M335.976596,26.6865234 C335.976596,28.9326284 335.339396,30.7441337 334.064975,32.1210938 C332.790555,33.4980538 331.113325,34.1865234 329.033237,34.1865234 C328.232452,34.1865234 327.065471,33.9228542 325.53226,33.3955078 C325.317415,33.7763691 324.99027,33.9667969 324.550815,33.9667969 C324.238313,33.9667969 323.974644,33.8593761 323.759799,33.6445312 C323.544955,33.4296864 323.437534,33.1660172 323.437534,32.8535156 L323.437534,14.7919922 C323.437534,14.4892563 323.544955,14.2280284 323.759799,14.0083008 C323.974644,13.7885731 324.238313,13.6787109 324.550815,13.6787109 C324.863317,13.6787109 325.126986,13.7885731 325.341831,14.0083008 C325.556675,14.2280284 325.664096,14.4892563 325.664096,14.7919922 L325.664096,19.9335938 C327.109416,19.4453101 328.232452,19.2011719 329.033237,19.2011719 C331.113325,19.2011719 332.790555,19.8896416 334.064975,21.2666016 C335.339396,22.6435616 335.976596,24.4501841 335.976596,26.6865234 Z M333.750034,26.6865234 C333.750034,25.0458902 333.332557,23.7617234 332.497592,22.8339844 C331.662627,21.9062454 330.507854,21.4423828 329.033237,21.4423828 C328.242217,21.4423828 327.119182,21.7158176 325.664096,22.2626953 L325.664096,31.1103516 C326.191443,31.3154307 326.789581,31.5058585 327.45853,31.6816406 C328.127478,31.8574228 328.652376,31.9453125 329.033237,31.9453125 C330.507854,31.9453125 331.662627,31.48145 332.497592,30.5537109 C333.332557,29.6259719 333.750034,28.3369223 333.750034,26.6865234 Z M351.152292,21.0175781 L345.248971,35.2412109 C344.125919,37.9560683 342.080041,39.3427731 339.111276,39.4013672 C338.798775,39.4111329 338.530223,39.3134776 338.305612,39.1083984 C338.081002,38.9033193 337.963815,38.63965 337.95405,38.3173828 C337.944284,38.0146469 338.041939,37.7509777 338.247018,37.5263672 C338.452097,37.3017567 338.710884,37.1796876 339.023385,37.1601562 C340.107375,37.1210936 340.971624,36.8867209 341.616159,36.4570312 C342.260693,36.0273416 342.783149,35.3339892 343.183542,34.3769531 L343.637643,33.2929688 L338.525339,21.046875 C338.408151,20.7636705 338.408151,20.4780288 338.525339,20.1899414 C338.642527,19.901854 338.84272,19.6992193 339.125925,19.5820312 C339.409129,19.4648432 339.694771,19.4648432 339.982858,19.5820312 C340.270946,19.6992193 340.47358,19.8994126 340.590768,20.1826172 L344.838815,30.3779297 L349.086862,20.1533203 C349.20405,19.8701158 349.406685,19.6699225 349.694772,19.5527344 C349.98286,19.4355463 350.268501,19.4355463 350.551706,19.5527344 C350.83491,19.6699225 351.035104,19.8725572 351.152292,20.1606445 C351.26948,20.4487319 351.26948,20.7343736 351.152292,21.0175781 Z M370.619894,32.296875 C370.737082,32.5898452 370.732199,32.8779283 370.605245,33.1611328 C370.478292,33.4443374 370.273215,33.6396479 369.990011,33.7470703 C369.17946,34.0498062 368.447045,34.2011719 367.792745,34.2011719 C364.413822,34.2011719 362.724386,32.3164251 362.724386,28.546875 L362.724386,21.7060547 L360.893331,21.7060547 C360.58083,21.7060547 360.31716,21.5961925 360.102316,21.3764648 C359.887471,21.1567372 359.78005,20.8955093 359.78005,20.5927734 C359.78005,20.2900375 359.887471,20.0288097 360.102316,19.809082 C360.31716,19.5893544 360.58083,19.4794922 360.893331,19.4794922 L362.724386,19.4794922 L362.724386,15.8173828 C362.724386,15.5048812 362.834248,15.2387706 363.053976,15.019043 C363.273703,14.7993153 363.534931,14.6894531 363.837667,14.6894531 C364.140403,14.6894531 364.401631,14.7993153 364.621359,15.019043 C364.841086,15.2387706 364.950948,15.5048812 364.950948,15.8173828 L364.950948,19.4794922 L368.334738,19.4794922 C368.647239,19.4794922 368.910908,19.5893544 369.125753,19.809082 C369.340598,20.0288097 369.448019,20.2900375 369.448019,20.5927734 C369.448019,20.8955093 369.340598,21.1567372 369.125753,21.3764648 C368.910908,21.5961925 368.647239,21.7060547 368.334738,21.7060547 L364.950948,21.7060547 L364.950948,28.546875 C364.950948,29.894538 365.177997,30.8002906 365.632101,31.2641602 C366.086205,31.7280297 366.806412,31.9599609 367.792745,31.9599609 C368.173607,31.9599609 368.637469,31.8623057 369.184347,31.6669922 C369.467551,31.5595698 369.750752,31.5668939 370.033956,31.6889648 C370.317161,31.8110358 370.512471,32.0136705 370.619894,32.296875 Z M385.927425,25.1191406 L385.927425,32.8535156 C385.927425,33.1660172 385.817563,33.4296864 385.597835,33.6445312 C385.378108,33.8593761 385.11688,33.9667969 384.814144,33.9667969 C384.501642,33.9667969 384.235532,33.8569347 384.015804,33.637207 C383.796076,33.4174794 383.686214,33.1562515 383.686214,32.8535156 L383.686214,25.1191406 C383.686214,23.9277284 383.390807,23.0219758 382.799984,22.4018555 C382.209161,21.7817352 381.34247,21.4716797 380.199886,21.4716797 C379.262381,21.4716797 378.412781,21.6889627 377.651058,22.1235352 C376.889335,22.5581076 376.293638,23.0097633 375.863949,23.4785156 L375.863949,32.8828125 C375.863949,33.1953141 375.756528,33.4589833 375.541683,33.6738281 C375.326838,33.8886729 375.063169,33.9960938 374.750667,33.9960938 C374.438166,33.9960938 374.174497,33.8886729 373.959652,33.6738281 C373.744807,33.4589833 373.637386,33.1953141 373.637386,32.8828125 L373.637386,14.7919922 C373.637386,14.4892563 373.744807,14.2280284 373.959652,14.0083008 C374.174497,13.7885731 374.438166,13.6787109 374.750667,13.6787109 C375.063169,13.6787109 375.326838,13.7885731 375.541683,14.0083008 C375.756528,14.2280284 375.863949,14.4892563 375.863949,14.7919922 L375.863949,20.6806641 C377.270206,19.7138624 378.715504,19.2304688 380.199886,19.2304688 C381.957707,19.2304688 383.351736,19.7578072 384.382015,20.8125 C385.412294,21.8671928 385.927425,23.3027253 385.927425,25.1191406 Z M402.743746,26.3056641 C402.743746,26.5888686 402.648532,26.8305654 402.458101,27.0307617 C402.267671,27.230958 402.035739,27.3359375 401.7623,27.3457031 L392.094332,27.9462891 C392.260348,29.264655 392.765714,30.2827113 393.610445,31.0004883 C394.455176,31.7182653 395.526942,32.0771484 396.825777,32.0771484 C397.792579,32.0771484 398.710538,31.9111345 399.579683,31.5791016 C399.853122,31.4716792 400.126557,31.4716792 400.399996,31.5791016 C400.673435,31.686524 400.863862,31.872069 400.971285,32.1357422 C401.088473,32.4091811 401.093356,32.6801744 400.985933,32.9487305 C400.878511,33.2172865 400.688083,33.4052729 400.414644,33.5126953 C399.311123,33.9619163 398.114846,34.1865234 396.825777,34.1865234 C394.755454,34.1865234 393.090432,33.5346745 391.83066,32.230957 C390.570888,30.9272396 389.941011,29.2402447 389.941011,27.1699219 L389.941011,26.0273438 C389.941011,25.1679645 390.085053,24.3354532 390.37314,23.5297852 C390.661228,22.7241171 391.07138,21.9990267 391.603609,21.3544922 C392.135838,20.7099577 392.826749,20.1948261 393.676363,19.809082 C394.525977,19.4233379 395.46835,19.2304688 396.503511,19.2304688 C398.427349,19.2304688 399.94833,19.8627866 401.0665,21.1274414 C402.184669,22.3920962 402.743746,24.1181531 402.743746,26.3056641 Z M392.050386,25.8515625 L400.590425,25.3242188 C400.28769,22.6679555 398.925398,21.3398438 396.503511,21.3398438 C395.556241,21.3398438 394.743261,21.5595681 394.064547,21.9990234 C393.385832,22.4384788 392.890232,22.9877897 392.57773,23.6469727 C392.265229,24.3061556 392.089449,25.0410116 392.050386,25.8515625 Z M427.426192,31.9892578 C427.533614,32.282228 427.523848,32.5678697 427.396895,32.8461914 C427.269941,33.1245131 427.059982,33.3173823 426.767012,33.4248047 C425.302161,33.9326197 423.876394,34.1865234 422.489668,34.1865234 C419.5502,34.1865234 417.19915,33.2490328 415.436445,31.3740234 C413.673741,29.4990141 412.792402,26.9990391 412.792402,23.8740234 C412.792402,20.7490078 413.6713,18.2514742 415.429121,16.3813477 C417.186942,14.5112211 419.540435,13.5761719 422.489668,13.5761719 C423.876394,13.5761719 425.302161,13.8300756 426.767012,14.3378906 C427.059982,14.445313 427.269941,14.6381822 427.396895,14.9165039 C427.523848,15.1948256 427.533614,15.4804673 427.426192,15.7734375 C427.318769,16.056642 427.1259,16.2617181 426.847578,16.3886719 C426.569257,16.5156256 426.283615,16.5253912 425.990645,16.4179688 C424.877358,16.0078104 423.710377,15.8027344 422.489668,15.8027344 C420.155672,15.8027344 418.329518,16.5156179 417.011152,17.9414062 C415.692786,19.3671946 415.033613,21.3447139 415.033613,23.8740234 C415.033613,26.403333 415.692786,28.3808522 417.011152,29.8066406 C418.329518,31.232429 420.155672,31.9453125 422.489668,31.9453125 C423.02678,31.9453125 423.580974,31.8964849 424.152266,31.7988281 C424.723558,31.7011714 425.145917,31.6108403 425.419356,31.527832 C425.692794,31.4448238 425.883222,31.3789065 425.990645,31.3300781 C426.283615,31.2226557 426.571698,31.2348626 426.854902,31.3666992 C427.138107,31.4985358 427.328535,31.7060533 427.426192,31.9892578 Z M444.022785,26.6572266 C444.022785,28.8056748 443.34164,30.5976491 441.979328,32.0332031 C440.617017,33.4687572 438.920257,34.1865234 436.888996,34.1865234 C434.857736,34.1865234 433.163417,33.4785227 431.805989,32.0625 C430.44856,30.6464773 429.769856,28.8789168 429.769856,26.7597656 C429.769856,25.3535086 430.079911,24.0742245 430.700032,22.921875 C431.320152,21.7695255 432.172194,20.8662142 433.256184,20.2119141 C434.340174,19.5576139 435.551099,19.2304688 436.888996,19.2304688 C438.920257,19.2304688 440.617017,19.9384695 441.979328,21.3544922 C443.34164,22.7705149 444.022785,24.5380753 444.022785,26.6572266 Z M441.781575,26.6572266 C441.781575,25.1533128 441.320153,23.9130908 440.397297,22.9365234 C439.474441,21.9599561 438.305019,21.4716797 436.888996,21.4716797 C435.472974,21.4716797 434.303552,21.9697216 433.380696,22.9658203 C432.457839,23.961919 431.996418,25.2265548 431.996418,26.7597656 C431.996418,28.2636794 432.457839,29.5039014 433.380696,30.4804688 C434.303552,31.4570361 435.472974,31.9453125 436.888996,31.9453125 C438.305019,31.9453125 439.474441,31.4472706 440.397297,30.4511719 C441.320153,29.4550731 441.781575,28.1904374 441.781575,26.6572266 Z M460.223872,24.9580078 L460.223872,32.8535156 C460.223872,33.1660172 460.114009,33.4296864 459.894282,33.6445312 C459.674554,33.8593761 459.413326,33.9667969 459.11059,33.9667969 C458.807855,33.9667969 458.546627,33.8593761 458.326899,33.6445312 C458.107171,33.4296864 457.997309,33.1660172 457.997309,32.8535156 L457.997309,24.9580078 C457.997309,23.7372986 457.743405,22.851077 457.23559,22.2993164 C456.727775,21.7475558 455.912354,21.4716797 454.789301,21.4716797 C454.11547,21.4716797 453.44409,21.6059557 452.775141,21.8745117 C452.106193,22.1430677 451.593502,22.4091784 451.237055,22.6728516 C450.880608,22.9365248 450.570553,23.200194 450.306879,23.4638672 L450.306879,32.8535156 C450.306879,33.1660172 450.199459,33.4296864 449.984614,33.6445312 C449.769769,33.8593761 449.5061,33.9667969 449.193598,33.9667969 C448.881097,33.9667969 448.617427,33.8593761 448.402583,33.6445312 C448.187738,33.4296864 448.080317,33.1660172 448.080317,32.8535156 L448.080317,20.578125 C448.080317,20.2656234 448.187738,20.0019542 448.402583,19.7871094 C448.617427,19.5722646 448.881097,19.4648438 449.193598,19.4648438 C449.5061,19.4648438 449.769769,19.5722646 449.984614,19.7871094 C450.199459,20.0019542 450.306879,20.2656234 450.306879,20.578125 L450.306879,20.7246094 C451.752199,19.7382763 453.246325,19.2451172 454.789301,19.2451172 C456.547123,19.2451172 457.892324,19.7382763 458.824946,20.7246094 C459.757568,21.7109424 460.223872,23.1220611 460.223872,24.9580078 Z M477.15738,24.9580078 L477.15738,32.8535156 C477.15738,33.1660172 477.047518,33.4296864 476.82779,33.6445312 C476.608062,33.8593761 476.346834,33.9667969 476.044098,33.9667969 C475.741363,33.9667969 475.480135,33.8593761 475.260407,33.6445312 C475.040679,33.4296864 474.930817,33.1660172 474.930817,32.8535156 L474.930817,24.9580078 C474.930817,23.7372986 474.676913,22.851077 474.169098,22.2993164 C473.661283,21.7475558 472.845862,21.4716797 471.722809,21.4716797 C471.048978,21.4716797 470.377598,21.6059557 469.708649,21.8745117 C469.039701,22.1430677 468.52701,22.4091784 468.170563,22.6728516 C467.814116,22.9365248 467.504061,23.200194 467.240388,23.4638672 L467.240388,32.8535156 C467.240388,33.1660172 467.132967,33.4296864 466.918122,33.6445312 C466.703277,33.8593761 466.439608,33.9667969 466.127106,33.9667969 C465.814605,33.9667969 465.550935,33.8593761 465.336091,33.6445312 C465.121246,33.4296864 465.013825,33.1660172 465.013825,32.8535156 L465.013825,20.578125 C465.013825,20.2656234 465.121246,20.0019542 465.336091,19.7871094 C465.550935,19.5722646 465.814605,19.4648438 466.127106,19.4648438 C466.439608,19.4648438 466.703277,19.5722646 466.918122,19.7871094 C467.132967,20.0019542 467.240388,20.2656234 467.240388,20.578125 L467.240388,20.7246094 C468.685707,19.7382763 470.179833,19.2451172 471.722809,19.2451172 C473.480631,19.2451172 474.825832,19.7382763 475.758454,20.7246094 C476.691076,21.7109424 477.15738,23.1220611 477.15738,24.9580078 Z M493.9737,26.3056641 C493.9737,26.5888686 493.878486,26.8305654 493.688056,27.0307617 C493.497625,27.230958 493.265694,27.3359375 492.992255,27.3457031 L483.324286,27.9462891 C483.490303,29.264655 483.995669,30.2827113 484.840399,31.0004883 C485.68513,31.7182653 486.756897,32.0771484 488.055731,32.0771484 C489.022533,32.0771484 489.940493,31.9111345 490.809638,31.5791016 C491.083077,31.4716792 491.356511,31.4716792 491.62995,31.5791016 C491.903389,31.686524 492.093817,31.872069 492.201239,32.1357422 C492.318427,32.4091811 492.32331,32.6801744 492.215888,32.9487305 C492.108465,33.2172865 491.918038,33.4052729 491.644599,33.5126953 C490.541078,33.9619163 489.3448,34.1865234 488.055731,34.1865234 C485.985409,34.1865234 484.320386,33.5346745 483.060614,32.230957 C481.800842,30.9272396 481.170966,29.2402447 481.170966,27.1699219 L481.170966,26.0273438 C481.170966,25.1679645 481.315007,24.3354532 481.603095,23.5297852 C481.891182,22.7241171 482.301334,21.9990267 482.833564,21.3544922 C483.365793,20.7099577 484.056704,20.1948261 484.906317,19.809082 C485.755931,19.4233379 486.698304,19.2304688 487.733466,19.2304688 C489.657304,19.2304688 491.178284,19.8627866 492.296454,21.1274414 C493.414624,22.3920962 493.9737,24.1181531 493.9737,26.3056641 Z M483.280341,25.8515625 L491.82038,25.3242188 C491.517644,22.6679555 490.155353,21.3398438 487.733466,21.3398438 C486.786195,21.3398438 485.973215,21.5595681 485.294501,21.9990234 C484.615787,22.4384788 484.120186,22.9877897 483.807685,23.6469727 C483.495183,24.3061556 483.319404,25.0410116 483.280341,25.8515625 Z M507.992169,32.3554688 C508.070295,32.648439 508.028791,32.9291979 507.867657,33.1977539 C507.706524,33.4663099 507.479475,33.6347653 507.186505,33.703125 C506.688456,33.8300788 506.329573,33.9204099 506.109845,33.9741211 C505.890117,34.0278323 505.599593,34.0766599 505.238263,34.1206055 C504.876933,34.164551 504.491195,34.1865234 504.081036,34.1865234 C501.942354,34.1865234 500.216297,33.4785227 498.902814,32.0625 C497.589331,30.6464773 496.932599,28.8593858 496.932599,26.7011719 C496.932599,24.542958 497.589331,22.7558665 498.902814,21.3398438 C500.216297,19.923821 501.942354,19.2158203 504.081036,19.2158203 C505.086901,19.2158203 506.112281,19.3720687 507.157208,19.6845703 C507.479475,19.7919927 507.718731,19.9775377 507.874982,20.2412109 C508.031232,20.5048841 508.065412,20.7880844 507.977521,21.0908203 C507.899395,21.3837905 507.723616,21.6059563 507.450177,21.7573242 C507.176738,21.9086922 506.893538,21.9404301 506.600568,21.8525391 C505.702126,21.5791002 504.86229,21.4423828 504.081036,21.4423828 C502.567357,21.4423828 501.37108,21.9331006 500.492169,22.9145508 C499.613259,23.896001 499.17381,25.1581954 499.17381,26.7011719 C499.17381,28.2441483 499.613259,29.5063427 500.492169,30.487793 C501.37108,31.4692432 502.567357,31.9599609 504.081036,31.9599609 C504.256819,31.9599609 504.427715,31.9526368 504.593732,31.9379883 C504.759748,31.9233398 504.947735,31.898926 505.157697,31.8647461 C505.367659,31.8305662 505.519024,31.803711 505.611798,31.7841797 C505.704572,31.7646483 505.885234,31.7207035 506.15379,31.6523438 C506.422346,31.583984 506.585919,31.5449219 506.644513,31.5351562 C506.947249,31.4667965 507.228008,31.5107414 507.486798,31.6669922 C507.745588,31.823243 507.914044,32.0527329 507.992169,32.3554688 Z M520.838763,32.296875 C520.955951,32.5898452 520.951068,32.8779283 520.824115,33.1611328 C520.697161,33.4443374 520.492085,33.6396479 520.20888,33.7470703 C519.398329,34.0498062 518.665915,34.2011719 518.011615,34.2011719 C514.632692,34.2011719 512.943255,32.3164251 512.943255,28.546875 L512.943255,21.7060547 L511.112201,21.7060547 C510.799699,21.7060547 510.53603,21.5961925 510.321185,21.3764648 C510.10634,21.1567372 509.998919,20.8955093 509.998919,20.5927734 C509.998919,20.2900375 510.10634,20.0288097 510.321185,19.809082 C510.53603,19.5893544 510.799699,19.4794922 511.112201,19.4794922 L512.943255,19.4794922 L512.943255,15.8173828 C512.943255,15.5048812 513.053118,15.2387706 513.272845,15.019043 C513.492573,14.7993153 513.753801,14.6894531 514.056537,14.6894531 C514.359272,14.6894531 514.6205,14.7993153 514.840228,15.019043 C515.059956,15.2387706 515.169818,15.5048812 515.169818,15.8173828 L515.169818,19.4794922 L518.553607,19.4794922 C518.866108,19.4794922 519.129778,19.5893544 519.344623,19.809082 C519.559467,20.0288097 519.666888,20.2900375 519.666888,20.5927734 C519.666888,20.8955093 519.559467,21.1567372 519.344623,21.3764648 C519.129778,21.5961925 518.866108,21.7060547 518.553607,21.7060547 L515.169818,21.7060547 L515.169818,28.546875 C515.169818,29.894538 515.396866,30.8002906 515.85097,31.2641602 C516.305074,31.7280297 517.025282,31.9599609 518.011615,31.9599609 C518.392476,31.9599609 518.856339,31.8623057 519.403216,31.6669922 C519.686421,31.5595698 519.969621,31.5668939 520.252826,31.6889648 C520.53603,31.8110358 520.731341,32.0136705 520.838763,32.296875 Z M526.419732,13.7519531 L525.863092,14.3964844 C525.61895,14.6796889 525.308894,14.8359374 524.932916,14.8652344 C524.556937,14.8945314 524.227351,14.7871106 523.944146,14.5429688 C523.660942,14.2988269 523.502252,13.9887714 523.468072,13.612793 C523.433892,13.2368145 523.538872,12.907228 523.783013,12.6240234 L524.339654,11.9794922 C524.583796,11.6962876 524.893851,11.5375978 525.26983,11.503418 C525.645808,11.4692381 525.975395,11.5742175 526.258599,11.8183594 C526.541804,12.0722669 526.700494,12.3872052 526.734674,12.7631836 C526.768853,13.139162 526.663874,13.4687486 526.419732,13.7519531 Z M526.214654,20.578125 L526.214654,32.8535156 C526.214654,33.1660172 526.104792,33.4296864 525.885064,33.6445312 C525.665337,33.8593761 525.404109,33.9667969 525.101373,33.9667969 C524.798637,33.9667969 524.537409,33.8593761 524.317681,33.6445312 C524.097954,33.4296864 523.988092,33.1660172 523.988092,32.8535156 L523.988092,20.578125 C523.988092,20.2656234 524.097954,20.0019542 524.317681,19.7871094 C524.537409,19.5722646 524.798637,19.4648438 525.101373,19.4648438 C525.404109,19.4648438 525.665337,19.5722646 525.885064,19.7871094 C526.104792,20.0019542 526.214654,20.2656234 526.214654,20.578125 Z M543.411834,24.9580078 L543.411834,32.8535156 C543.411834,33.1660172 543.301972,33.4296864 543.082244,33.6445312 C542.862516,33.8593761 542.601289,33.9667969 542.298553,33.9667969 C541.995817,33.9667969 541.734589,33.8593761 541.514861,33.6445312 C541.295134,33.4296864 541.185271,33.1660172 541.185271,32.8535156 L541.185271,24.9580078 C541.185271,23.7372986 540.931368,22.851077 540.423553,22.2993164 C539.915738,21.7475558 539.100316,21.4716797 537.977264,21.4716797 C537.303432,21.4716797 536.632052,21.6059557 535.963103,21.8745117 C535.294155,22.1430677 534.781465,22.4091784 534.425018,22.6728516 C534.06857,22.9365248 533.758515,23.200194 533.494842,23.4638672 L533.494842,32.8535156 C533.494842,33.1660172 533.387421,33.4296864 533.172576,33.6445312 C532.957731,33.8593761 532.694062,33.9667969 532.38156,33.9667969 C532.069059,33.9667969 531.80539,33.8593761 531.590545,33.6445312 C531.3757,33.4296864 531.268279,33.1660172 531.268279,32.8535156 L531.268279,20.578125 C531.268279,20.2656234 531.3757,20.0019542 531.590545,19.7871094 C531.80539,19.5722646 532.069059,19.4648438 532.38156,19.4648438 C532.694062,19.4648438 532.957731,19.5722646 533.172576,19.7871094 C533.387421,20.0019542 533.494842,20.2656234 533.494842,20.578125 L533.494842,20.7246094 C534.940161,19.7382763 536.434287,19.2451172 537.977264,19.2451172 C539.735085,19.2451172 541.080286,19.7382763 542.012908,20.7246094 C542.94553,21.7109424 543.411834,23.1220611 543.411834,24.9580078 Z M560.374639,19.2744141 C560.618781,19.4306648 560.770146,19.6503892 560.82874,19.9335938 C560.887334,20.2167983 560.838507,20.4804675 560.682256,20.7246094 C560.526005,20.9687512 560.301398,21.1201169 560.008428,21.1787109 L557.73792,21.6474609 C558.177375,22.4189492 558.3971,23.2246052 558.3971,24.0644531 C558.3971,25.4023504 557.923472,26.5253861 556.976201,27.4335938 C556.028931,28.3418014 554.886364,28.7958984 553.548467,28.7958984 C552.620728,28.7958984 551.751596,28.5419947 550.941045,28.0341797 C550.179323,28.6201201 549.749639,29.0644516 549.651983,29.3671875 C549.651983,29.5234383 549.666631,29.6845695 549.695928,29.8505859 C549.725225,30.0166024 549.783818,30.2094716 549.871709,30.4291992 C549.9596,30.6489269 550.108525,30.8369133 550.318486,30.9931641 C550.528448,31.1494148 550.784794,31.2373046 551.087529,31.2568359 L557.151983,31.7255859 C558.890273,31.8623054 559.759404,33.0732308 559.759404,35.3583984 C559.759404,36.6572331 559.219859,37.6777307 558.140752,38.4199219 C557.061645,39.1621131 555.555313,39.5332031 553.621709,39.5332031 C551.697871,39.5332031 550.167125,39.1572303 549.029424,38.4052734 C547.891723,37.6533166 547.322881,36.65235 547.322881,35.4023438 C547.322881,34.6406212 547.757447,33.5664132 548.626592,32.1796875 C547.962526,31.4277306 547.630498,30.49024 547.630498,29.3671875 C547.630498,28.5078082 548.250609,27.5947314 549.49085,26.6279297 C548.943972,25.7783161 548.670537,24.8847703 548.670537,23.9472656 C548.660772,22.619134 549.131958,21.4960983 550.084111,20.578125 C551.036265,19.6601517 552.186156,19.2011719 553.533819,19.2011719 C554.402963,19.2011719 555.218385,19.425779 555.980108,19.875 L559.583623,19.1279297 C559.866828,19.0693356 560.130497,19.1181633 560.374639,19.2744141 Z M556.492803,24.0644531 C556.492803,23.2636679 556.199837,22.5703154 555.613897,21.984375 C555.027956,21.3984346 554.334604,21.1054688 553.533819,21.1054688 C552.723268,21.1054688 552.025032,21.3764621 551.439092,21.918457 C550.853152,22.4604519 550.560186,23.1318319 550.560186,23.9326172 C550.569951,24.7529338 550.865359,25.451169 551.446416,26.0273438 C552.027474,26.6035185 552.72815,26.8916016 553.548467,26.8916016 C554.359018,26.8916016 555.05237,26.6230496 555.628545,26.0859375 C556.20472,25.5488254 556.492803,24.8750041 556.492803,24.0644531 Z M557.752569,35.3583984 C557.752569,34.8798804 557.715948,34.5161145 557.642705,34.2670898 C557.569463,34.0180652 557.486456,33.8666995 557.393682,33.8129883 C557.300908,33.7592771 557.171515,33.7275391 557.005498,33.7177734 L550.926397,33.2636719 C550.770146,33.2539062 550.589484,33.2246096 550.384404,33.1757812 C549.681276,34.2793024 549.329717,35.0214825 549.329717,35.4023438 C549.329717,35.8710961 549.554324,36.2714827 550.003545,36.6035156 C550.452766,36.9355485 550.98987,37.1723626 551.614873,37.3139648 C552.239876,37.4555671 552.908815,37.5263672 553.621709,37.5263672 C553.924445,37.5263672 554.222294,37.5166017 554.515264,37.4970703 C554.808234,37.477539 555.162234,37.4238286 555.577276,37.3359375 C555.992317,37.2480464 556.3512,37.1308601 556.653936,36.984375 C556.956672,36.8378899 557.215458,36.6230483 557.430303,36.3398438 C557.645148,36.0566392 557.752569,35.729494 557.752569,35.3583984 Z M583.006303,14.9238281 C583.006303,15.2363297 582.894,15.5024403 582.669389,15.722168 C582.444779,15.9418956 582.18111,16.0517578 581.878374,16.0517578 L573.411577,16.0517578 L573.411577,22.8339844 L580.60396,22.8339844 C580.916461,22.8339844 581.182572,22.9438466 581.402299,23.1635742 C581.622027,23.3833019 581.731889,23.6445297 581.731889,23.9472656 C581.731889,24.2500015 581.622027,24.5112294 581.402299,24.730957 C581.182572,24.9506847 580.916461,25.0605469 580.60396,25.0605469 L573.411577,25.0605469 L573.411577,31.7402344 L581.658647,31.7402344 C581.971149,31.7402344 582.234818,31.8476552 582.449663,32.0625 C582.664508,32.2773448 582.771928,32.5410141 582.771928,32.8535156 C582.771928,33.1660172 582.664508,33.4296864 582.449663,33.6445312 C582.234818,33.8593761 581.971149,33.9667969 581.658647,33.9667969 L572.298296,33.9667969 C571.99556,33.9667969 571.734332,33.8593761 571.514604,33.6445312 C571.294876,33.4296864 571.185014,33.1660172 571.185014,32.8535156 L571.185014,14.9238281 C571.185014,14.6113266 571.294876,14.3476573 571.514604,14.1328125 C571.734332,13.9179677 571.99556,13.8105469 572.298296,13.8105469 L581.878374,13.8105469 C582.190875,13.8105469 582.456986,13.9204091 582.676714,14.1401367 C582.896441,14.3598644 583.006303,14.6210922 583.006303,14.9238281 Z M598.533561,20.578125 L598.533561,32.8535156 C598.533561,33.1660172 598.423699,33.4296864 598.203972,33.6445312 C597.984244,33.8593761 597.723016,33.9667969 597.42028,33.9667969 C597.117544,33.9667969 596.856316,33.8593761 596.636589,33.6445312 C596.416861,33.4296864 596.306999,33.1660172 596.306999,32.8535156 L596.306999,32.765625 C594.920273,33.7128954 593.479858,34.1865234 591.98571,34.1865234 C590.227889,34.1865234 588.858273,33.6738333 587.876823,32.6484375 C586.895373,31.6230417 586.404655,30.2021575 586.404655,28.3857422 L586.404655,20.578125 C586.404655,20.2656234 586.514517,20.0019542 586.734245,19.7871094 C586.953973,19.5722646 587.2152,19.4648438 587.517936,19.4648438 C587.820672,19.4648438 588.0819,19.5722646 588.301628,19.7871094 C588.521355,20.0019542 588.631218,20.2656234 588.631218,20.578125 L588.631218,28.3857422 C588.631218,29.5966857 588.904652,30.4926729 589.45153,31.0737305 C589.998408,31.6547881 590.843126,31.9453125 591.98571,31.9453125 C592.93298,31.9453125 593.785022,31.7329123 594.541862,31.3081055 C595.298702,30.8832987 595.887075,30.4462913 596.306999,29.9970703 L596.306999,20.578125 C596.306999,20.2656234 596.416861,20.0019542 596.636589,19.7871094 C596.856316,19.5722646 597.117544,19.4648438 597.42028,19.4648438 C597.723016,19.4648438 597.984244,19.5722646 598.203972,19.7871094 C598.423699,20.0019542 598.533561,20.2656234 598.533561,20.578125 Z M611.790312,21.3691406 C611.624295,21.6425795 611.394805,21.8159176 611.101835,21.8891602 C610.808865,21.9624027 610.525665,21.9208992 610.252226,21.7646484 C609.900661,21.569335 609.505158,21.4716797 609.065702,21.4716797 C608.714138,21.4716797 608.208772,21.5717763 607.549589,21.7719727 C606.890406,21.972169 606.267854,22.2041002 605.681913,22.4677734 L605.681913,32.8535156 C605.681913,33.1660172 605.574492,33.4296864 605.359648,33.6445312 C605.144803,33.8593761 604.881133,33.9667969 604.568632,33.9667969 C604.25613,33.9667969 603.992461,33.8593761 603.777616,33.6445312 C603.562771,33.4296864 603.455351,33.1660172 603.455351,32.8535156 L603.455351,20.578125 C603.455351,20.2656234 603.562771,20.0019542 603.777616,19.7871094 C603.992461,19.5722646 604.25613,19.4648438 604.568632,19.4648438 C604.793242,19.4648438 605.00076,19.5283197 605.191191,19.6552734 C605.381621,19.7822272 605.515897,19.9482412 605.594023,20.1533203 C607.058874,19.5478485 608.216089,19.2451172 609.065702,19.2451172 C609.915316,19.2451172 610.691675,19.4453105 611.394804,19.8457031 C611.658477,20.0019539 611.829374,20.2290024 611.907499,20.5268555 C611.985624,20.8247085 611.946562,21.1054674 611.790312,21.3691406 Z M628.093937,26.6572266 C628.093937,28.8056748 627.412791,30.5976491 626.05048,32.0332031 C624.688168,33.4687572 622.991408,34.1865234 620.960148,34.1865234 C618.928888,34.1865234 617.234569,33.4785227 615.87714,32.0625 C614.519711,30.6464773 613.841007,28.8789168 613.841007,26.7597656 C613.841007,25.3535086 614.151063,24.0742245 614.771183,22.921875 C615.391303,21.7695255 616.243345,20.8662142 617.327335,20.2119141 C618.411325,19.5576139 619.62225,19.2304688 620.960148,19.2304688 C622.991408,19.2304688 624.688168,19.9384695 626.05048,21.3544922 C627.412791,22.7705149 628.093937,24.5380753 628.093937,26.6572266 Z M625.852726,26.6572266 C625.852726,25.1533128 625.391305,23.9130908 624.468449,22.9365234 C623.545592,21.9599561 622.37617,21.4716797 620.960148,21.4716797 C619.544125,21.4716797 618.374703,21.9697216 617.451847,22.9658203 C616.528991,23.961919 616.06757,25.2265548 616.06757,26.7597656 C616.06757,28.2636794 616.528991,29.5039014 617.451847,30.4804688 C618.374703,31.4570361 619.544125,31.9453125 620.960148,31.9453125 C622.37617,31.9453125 623.545592,31.4472706 624.468449,30.4511719 C625.391305,29.4550731 625.852726,28.1904374 625.852726,26.6572266 Z M644.705179,26.7304688 C644.705179,28.9668081 644.067979,30.7734306 642.793558,32.1503906 C641.519138,33.5273506 639.841908,34.2158203 637.76182,34.2158203 C636.961035,34.2158203 635.837999,33.9716821 634.392679,33.4833984 L634.392679,38.390625 C634.392679,38.7031266 634.282817,38.9692372 634.063089,39.1889648 C633.843362,39.4086925 633.582134,39.5185547 633.279398,39.5185547 C632.976662,39.5185547 632.715434,39.4086925 632.495707,39.1889648 C632.275979,38.9692372 632.166117,38.7031266 632.166117,38.390625 L632.166117,20.5634766 C632.166117,20.2607407 632.275979,19.9995128 632.495707,19.7797852 C632.715434,19.5600575 632.976662,19.4501953 633.279398,19.4501953 C633.718853,19.4501953 634.045998,19.6406231 634.260843,20.0214844 C635.764757,19.5039037 636.931738,19.2451172 637.76182,19.2451172 C639.841908,19.2451172 641.519138,19.9311455 642.793558,21.3032227 C644.067979,22.6752998 644.705179,24.4843638 644.705179,26.7304688 Z M642.478617,26.7304688 C642.478617,25.0800699 642.06114,23.7910203 641.226175,22.8632812 C640.39121,21.9355422 639.236437,21.4716797 637.76182,21.4716797 C637.380959,21.4716797 636.856061,21.5595694 636.187113,21.7353516 C635.518164,21.9111337 634.920026,22.1015615 634.392679,22.3066406 L634.392679,31.1542969 C635.847765,31.7011746 636.9708,31.9746094 637.76182,31.9746094 C639.236437,31.9746094 640.39121,31.5107468 641.226175,30.5830078 C642.06114,29.6552688 642.478617,28.371102 642.478617,26.7304688 Z M660.818375,26.3056641 C660.818375,26.5888686 660.723161,26.8305654 660.53273,27.0307617 C660.3423,27.230958 660.110368,27.3359375 659.836929,27.3457031 L650.168961,27.9462891 C650.334977,29.264655 650.840343,30.2827113 651.685074,31.0004883 C652.529805,31.7182653 653.601571,32.0771484 654.900406,32.0771484 C655.867208,32.0771484 656.785167,31.9111345 657.654312,31.5791016 C657.927751,31.4716792 658.201186,31.4716792 658.474625,31.5791016 C658.748064,31.686524 658.938491,31.872069 659.045914,32.1357422 C659.163102,32.4091811 659.167985,32.6801744 659.060562,32.9487305 C658.95314,33.2172865 658.762712,33.4052729 658.489273,33.5126953 C657.385752,33.9619163 656.189475,34.1865234 654.900406,34.1865234 C652.830083,34.1865234 651.165061,33.5346745 649.905289,32.230957 C648.645517,30.9272396 648.01564,29.2402447 648.01564,27.1699219 L648.01564,26.0273438 C648.01564,25.1679645 648.159682,24.3354532 648.447769,23.5297852 C648.735857,22.7241171 649.146009,21.9990267 649.678238,21.3544922 C650.210467,20.7099577 650.901378,20.1948261 651.750992,19.809082 C652.600606,19.4233379 653.542979,19.2304688 654.57814,19.2304688 C656.501978,19.2304688 658.022959,19.8627866 659.141129,21.1274414 C660.259298,22.3920962 660.818375,24.1181531 660.818375,26.3056641 Z M650.125015,25.8515625 L658.665054,25.3242188 C658.362319,22.6679555 657.000028,21.3398438 654.57814,21.3398438 C653.63087,21.3398438 652.81789,21.5595681 652.139176,21.9990234 C651.460461,22.4384788 650.964861,22.9877897 650.652359,23.6469727 C650.339858,24.3061556 650.164078,25.0410116 650.125015,25.8515625 Z M168.033203,56.1328125 C168.257814,56.3476573 168.370117,56.6113266 168.370117,56.9238281 C168.370117,57.2363297 168.260255,57.5024403 168.040527,57.722168 C167.8208,57.9418956 167.559572,58.0517578 167.256836,58.0517578 L159.112305,58.0517578 L159.112305,65.2587891 L165.850586,65.2587891 C166.153322,65.2587891 166.416991,65.3686512 166.641602,65.5883789 C166.866212,65.8081066 166.978516,66.0742172 166.978516,66.3867188 C166.978516,66.6894546 166.868653,66.9506825 166.648926,67.1704102 C166.429198,67.3901378 166.163087,67.5 165.850586,67.5 L159.112305,67.5 L159.112305,74.8535156 C159.112305,75.1660172 159.002443,75.4296864 158.782715,75.6445312 C158.562987,75.8593761 158.301759,75.9667969 157.999023,75.9667969 C157.696288,75.9667969 157.43506,75.8593761 157.215332,75.6445312 C156.995604,75.4296864 156.885742,75.1660172 156.885742,74.8535156 L156.885742,56.9238281 C156.885742,56.6113266 156.995604,56.3476573 157.215332,56.1328125 C157.43506,55.9179677 157.696288,55.8105469 157.999023,55.8105469 L167.256836,55.8105469 C167.559572,55.8105469 167.818358,55.9179677 168.033203,56.1328125 Z M180.454992,65.2734375 L180.454992,74.9121094 C180.454992,75.2050796 180.350013,75.4541005 180.140051,75.6591797 C179.930089,75.8642588 179.678627,75.9667969 179.385656,75.9667969 C179.141515,75.9667969 178.924232,75.891114 178.733801,75.7397461 C178.54337,75.5883781 178.413977,75.3857435 178.345617,75.1318359 C176.607327,75.8349645 175.240154,76.1865234 174.244055,76.1865234 C172.925689,76.1865234 171.839274,75.7666058 170.984778,74.9267578 C170.130281,74.0869099 169.703039,73.0273501 169.703039,71.7480469 C169.703039,71.2304662 169.781164,70.7666036 169.937414,70.3564453 C170.093665,69.946287 170.2963,69.6044936 170.545324,69.3310547 C170.794349,69.0576158 171.106846,68.8183604 171.482824,68.6132812 C171.858803,68.4082021 172.237217,68.2470709 172.618078,68.1298828 C172.99894,68.0126947 173.428623,67.9101567 173.907141,67.8222656 L178.330969,67.0019531 L178.330969,65.2734375 C178.330969,64.7460911 178.035562,64.2919941 177.444739,63.9111328 C176.853915,63.5302715 176.221597,63.3398438 175.547766,63.3398438 C174.834872,63.3398438 173.433518,63.5595681 171.343664,63.9990234 C171.06046,64.0576175 170.796791,64.0087898 170.552649,63.8525391 C170.308507,63.6962883 170.152258,63.4765639 170.083899,63.1933594 C170.025305,62.9101548 170.074132,62.6440442 170.230383,62.3950195 C170.386634,62.1459948 170.606358,61.9921878 170.889563,61.9335938 C173.135668,61.4746071 174.688387,61.2451172 175.547766,61.2451172 C176.348551,61.2451172 177.120028,61.4111312 177.862219,61.7431641 C178.60441,62.075197 179.22208,62.5537078 179.715246,63.1787109 C180.208413,63.8037141 180.454992,64.5019493 180.454992,65.2734375 Z M178.330969,72.8320312 L178.330969,69.140625 L174.288,69.9023438 C173.301667,70.0878916 172.642494,70.3149401 172.310461,70.5834961 C171.978428,70.8520521 171.812414,71.2402318 171.812414,71.7480469 C171.812414,72.4511754 172.03458,73.0151346 172.478918,73.4399414 C172.923256,73.8647482 173.511629,74.0771484 174.244055,74.0771484 C175.191325,74.0771484 176.553616,73.6621135 178.330969,72.8320312 Z M195.542797,74.3554688 C195.620923,74.648439 195.579419,74.9291979 195.418286,75.1977539 C195.257152,75.4663099 195.030103,75.6347653 194.737133,75.703125 C194.239084,75.8300788 193.880201,75.9204099 193.660473,75.9741211 C193.440745,76.0278323 193.150221,76.0766599 192.788891,76.1206055 C192.427561,76.164551 192.041823,76.1865234 191.631665,76.1865234 C189.492982,76.1865234 187.766925,75.4785227 186.453442,74.0625 C185.139959,72.6464773 184.483227,70.8593858 184.483227,68.7011719 C184.483227,66.542958 185.139959,64.7558665 186.453442,63.3398438 C187.766925,61.923821 189.492982,61.2158203 191.631665,61.2158203 C192.637529,61.2158203 193.662909,61.3720687 194.707836,61.6845703 C195.030104,61.7919927 195.269359,61.9775377 195.42561,62.2412109 C195.581861,62.5048841 195.61604,62.7880844 195.528149,63.0908203 C195.450023,63.3837905 195.274244,63.6059563 195.000805,63.7573242 C194.727366,63.9086922 194.444166,63.9404301 194.151196,63.8525391 C193.252754,63.5791002 192.412918,63.4423828 191.631665,63.4423828 C190.117985,63.4423828 188.921708,63.9331006 188.042797,64.9145508 C187.163887,65.896001 186.724438,67.1581954 186.724438,68.7011719 C186.724438,70.2441483 187.163887,71.5063427 188.042797,72.487793 C188.921708,73.4692432 190.117985,73.9599609 191.631665,73.9599609 C191.807447,73.9599609 191.978343,73.9526368 192.14436,73.9379883 C192.310376,73.9233398 192.498363,73.898926 192.708325,73.8647461 C192.918287,73.8305662 193.069652,73.803711 193.162426,73.7841797 C193.2552,73.7646483 193.435862,73.7207035 193.704418,73.6523438 C193.972974,73.583984 194.136547,73.5449219 194.195141,73.5351562 C194.497877,73.4667965 194.778636,73.5107414 195.037426,73.6669922 C195.296217,73.823243 195.464672,74.0527329 195.542797,74.3554688 Z M201.92943,55.7519531 L201.37279,56.3964844 C201.128648,56.6796889 200.818592,56.8359374 200.442614,56.8652344 C200.066636,56.8945314 199.737049,56.7871106 199.453844,56.5429688 C199.17064,56.2988269 199.01195,55.9887714 198.97777,55.612793 C198.94359,55.2368145 199.04857,54.907228 199.292712,54.6240234 L199.849352,53.9794922 C200.093494,53.6962876 200.40355,53.5375978 200.779528,53.503418 C201.155506,53.4692381 201.485093,53.5742175 201.768298,53.8183594 C202.051502,54.0722669 202.210192,54.3872052 202.244372,54.7631836 C202.278552,55.139162 202.173572,55.4687486 201.92943,55.7519531 Z M201.724352,62.578125 L201.724352,74.8535156 C201.724352,75.1660172 201.61449,75.4296864 201.394762,75.6445312 C201.175035,75.8593761 200.913807,75.9667969 200.611071,75.9667969 C200.308335,75.9667969 200.047107,75.8593761 199.82738,75.6445312 C199.607652,75.4296864 199.49779,75.1660172 199.49779,74.8535156 L199.49779,62.578125 C199.49779,62.2656234 199.607652,62.0019542 199.82738,61.7871094 C200.047107,61.5722646 200.308335,61.4648437 200.611071,61.4648437 C200.913807,61.4648437 201.175035,61.5722646 201.394762,61.7871094 C201.61449,62.0019542 201.724352,62.2656234 201.724352,62.578125 Z M209.151024,56.8066406 L209.151024,74.8535156 C209.151024,75.1660172 209.043604,75.4296864 208.828759,75.6445312 C208.613914,75.8593761 208.350245,75.9667969 208.037743,75.9667969 C207.725242,75.9667969 207.461572,75.8593761 207.246727,75.6445312 C207.031883,75.4296864 206.924462,75.1660172 206.924462,74.8535156 L206.924462,56.8066406 C206.924462,56.4941391 207.031883,56.2304698 207.246727,56.015625 C207.461572,55.8007802 207.725242,55.6933594 208.037743,55.6933594 C208.350245,55.6933594 208.613914,55.8007802 208.828759,56.015625 C209.043604,56.2304698 209.151024,56.4941391 209.151024,56.8066406 Z M216.812071,55.7519531 L216.255431,56.3964844 C216.011289,56.6796889 215.701233,56.8359374 215.325255,56.8652344 C214.949277,56.8945314 214.61969,56.7871106 214.336485,56.5429688 C214.053281,56.2988269 213.894591,55.9887714 213.860411,55.612793 C213.826231,55.2368145 213.931211,54.907228 214.175353,54.6240234 L214.731993,53.9794922 C214.976135,53.6962876 215.286191,53.5375978 215.662169,53.503418 C216.038148,53.4692381 216.367734,53.5742175 216.650939,53.8183594 C216.934143,54.0722669 217.092833,54.3872052 217.127013,54.7631836 C217.161193,55.139162 217.056213,55.4687486 216.812071,55.7519531 Z M216.606993,62.578125 L216.606993,74.8535156 C216.606993,75.1660172 216.497131,75.4296864 216.277403,75.6445312 C216.057676,75.8593761 215.796448,75.9667969 215.493712,75.9667969 C215.190976,75.9667969 214.929748,75.8593761 214.710021,75.6445312 C214.490293,75.4296864 214.380431,75.1660172 214.380431,74.8535156 L214.380431,62.578125 C214.380431,62.2656234 214.490293,62.0019542 214.710021,61.7871094 C214.929748,61.5722646 215.190976,61.4648437 215.493712,61.4648437 C215.796448,61.4648437 216.057676,61.5722646 216.277403,61.7871094 C216.497131,62.0019542 216.606993,62.2656234 216.606993,62.578125 Z M230.713353,74.296875 C230.830541,74.5898452 230.825658,74.8779283 230.698704,75.1611328 C230.571751,75.4443374 230.366675,75.6396479 230.08347,75.7470703 C229.272919,76.0498062 228.540505,76.2011719 227.886204,76.2011719 C224.507281,76.2011719 222.817845,74.3164251 222.817845,70.546875 L222.817845,63.7060547 L220.98679,63.7060547 C220.674289,63.7060547 220.41062,63.5961925 220.195775,63.3764648 C219.98093,63.1567372 219.873509,62.8955093 219.873509,62.5927734 C219.873509,62.2900375 219.98093,62.0288097 220.195775,61.809082 C220.41062,61.5893544 220.674289,61.4794922 220.98679,61.4794922 L222.817845,61.4794922 L222.817845,57.8173828 C222.817845,57.5048812 222.927707,57.2387706 223.147435,57.019043 C223.367163,56.7993153 223.62839,56.6894531 223.931126,56.6894531 C224.233862,56.6894531 224.49509,56.7993153 224.714818,57.019043 C224.934545,57.2387706 225.044408,57.5048812 225.044408,57.8173828 L225.044408,61.4794922 L228.428197,61.4794922 C228.740698,61.4794922 229.004367,61.5893544 229.219212,61.809082 C229.434057,62.0288097 229.541478,62.2900375 229.541478,62.5927734 C229.541478,62.8955093 229.434057,63.1567372 229.219212,63.3764648 C229.004367,63.5961925 228.740698,63.7060547 228.428197,63.7060547 L225.044408,63.7060547 L225.044408,70.546875 C225.044408,71.894538 225.271456,72.8002906 225.72556,73.2641602 C226.179664,73.7280297 226.899871,73.9599609 227.886204,73.9599609 C228.267066,73.9599609 228.730928,73.8623057 229.277806,73.6669922 C229.561011,73.5595698 229.844211,73.5668939 230.127415,73.6889648 C230.41062,73.8110358 230.60593,74.0136705 230.713353,74.296875 Z M244.790416,63.0175781 L238.887095,77.2412109 C237.764043,79.9560683 235.718165,81.3427731 232.7494,81.4013672 C232.436898,81.4111329 232.168346,81.3134776 231.943736,81.1083984 C231.719125,80.9033193 231.601939,80.63965 231.592173,80.3173828 C231.582408,80.0146469 231.680063,79.7509777 231.885142,79.5263672 C232.090221,79.3017567 232.349008,79.1796876 232.661509,79.1601563 C233.745499,79.1210936 234.609748,78.8867209 235.254283,78.4570313 C235.898817,78.0273416 236.421273,77.3339892 236.821666,76.3769531 L237.275767,75.2929688 L232.163463,63.046875 C232.046274,62.7636705 232.046274,62.4780288 232.163463,62.1899414 C232.280651,61.901854 232.480844,61.6992193 232.764048,61.5820313 C233.047253,61.4648432 233.332895,61.4648432 233.620982,61.5820313 C233.909069,61.6992193 234.111704,61.8994126 234.228892,62.1826172 L238.476939,72.3779297 L242.724986,62.1533203 C242.842174,61.8701158 243.044809,61.6699225 243.332896,61.5527344 C243.620983,61.4355463 243.906625,61.4355463 244.18983,61.5527344 C244.473034,61.6699225 244.673228,61.8725572 244.790416,62.1606445 C244.907604,62.4487319 244.907604,62.7343736 244.790416,63.0175781 Z M268.593955,68.6572266 C268.593955,70.8056748 267.91281,72.5976491 266.550498,74.0332031 C265.188187,75.4687572 263.491426,76.1865234 261.460166,76.1865234 C259.428906,76.1865234 257.734587,75.4785227 256.377158,74.0625 C255.01973,72.6464773 254.341025,70.8789168 254.341025,68.7597656 C254.341025,67.3535086 254.651081,66.0742245 255.271201,64.921875 C255.891322,63.7695255 256.743364,62.8662142 257.827354,62.2119141 C258.911343,61.5576139 260.122269,61.2304688 261.460166,61.2304688 C263.491426,61.2304688 265.188187,61.9384695 266.550498,63.3544922 C267.91281,64.7705149 268.593955,66.5380753 268.593955,68.6572266 Z M266.352744,68.6572266 C266.352744,67.1533128 265.891323,65.9130908 264.968467,64.9365234 C264.045611,63.9599561 262.876189,63.4716797 261.460166,63.4716797 C260.044143,63.4716797 258.874721,63.9697216 257.951865,64.9658203 C257.029009,65.961919 256.567588,67.2265548 256.567588,68.7597656 C256.567588,70.2636794 257.029009,71.5039014 257.951865,72.4804688 C258.874721,73.4570361 260.044143,73.9453125 261.460166,73.9453125 C262.876189,73.9453125 264.045611,73.4472706 264.968467,72.4511719 C265.891323,71.4550731 266.352744,70.1904374 266.352744,68.6572266 Z M282.246213,57.2900391 C282.158322,57.592775 281.980101,57.8198235 281.711545,57.9711914 C281.442989,58.1225594 281.16223,58.1542973 280.86926,58.0664062 C280.488399,57.9687495 279.951295,57.9199219 279.257932,57.9199219 C278.271599,57.9199219 277.502564,58.195798 276.950803,58.7475586 C276.399042,59.2993192 276.128049,60.0634717 276.137815,61.0400391 L276.152463,63.3984375 L279.067502,63.3984375 C279.380004,63.3984375 279.643673,63.5058583 279.858518,63.7207031 C280.073363,63.9355479 280.180783,64.1992172 280.180783,64.5117188 C280.180783,64.8242203 280.070921,65.0903309 279.851194,65.3100586 C279.631466,65.5297863 279.370238,65.6396484 279.067502,65.6396484 L276.152463,65.6396484 L276.152463,74.8535156 C276.152463,75.1660172 276.042601,75.4296864 275.822873,75.6445312 C275.603146,75.8593761 275.341918,75.9667969 275.039182,75.9667969 C274.736446,75.9667969 274.475218,75.8593761 274.255491,75.6445312 C274.035763,75.4296864 273.925901,75.1660172 273.925901,74.8535156 L273.911252,65.6396484 L272.314573,65.6396484 C272.011837,65.6396484 271.750609,65.5297863 271.530881,65.3100586 C271.311153,65.0903309 271.201291,64.8242203 271.201291,64.5117188 C271.201291,64.1992172 271.311153,63.9355479 271.530881,63.7207031 C271.750609,63.5058583 272.011837,63.3984375 272.314573,63.3984375 L273.911252,63.3984375 L273.911252,61.0546875 C273.911252,59.453117 274.40197,58.1591846 275.38342,57.1728516 C276.36487,56.1865185 277.656361,55.6933594 279.257932,55.6933594 C280.293093,55.6933594 281.030391,55.7666008 281.469846,55.9130859 C281.762816,55.9912113 281.984982,56.1669908 282.13635,56.4404297 C282.287718,56.7138686 282.324339,56.9970688 282.246213,57.2900391 Z M299.663034,74.296875 C299.780222,74.5898452 299.775339,74.8779283 299.648385,75.1611328 C299.521432,75.4443374 299.316356,75.6396479 299.033151,75.7470703 C298.2226,76.0498062 297.490186,76.2011719 296.835885,76.2011719 C293.456962,76.2011719 291.767526,74.3164251 291.767526,70.546875 L291.767526,63.7060547 L289.936471,63.7060547 C289.62397,63.7060547 289.360301,63.5961925 289.145456,63.3764648 C288.930611,63.1567372 288.82319,62.8955093 288.82319,62.5927734 C288.82319,62.2900375 288.930611,62.0288097 289.145456,61.809082 C289.360301,61.5893544 289.62397,61.4794922 289.936471,61.4794922 L291.767526,61.4794922 L291.767526,57.8173828 C291.767526,57.5048812 291.877388,57.2387706 292.097116,57.019043 C292.316844,56.7993153 292.578071,56.6894531 292.880807,56.6894531 C293.183543,56.6894531 293.444771,56.7993153 293.664499,57.019043 C293.884226,57.2387706 293.994089,57.5048812 293.994089,57.8173828 L293.994089,61.4794922 L297.377878,61.4794922 C297.690379,61.4794922 297.954048,61.5893544 298.168893,61.809082 C298.383738,62.0288097 298.491159,62.2900375 298.491159,62.5927734 C298.491159,62.8955093 298.383738,63.1567372 298.168893,63.3764648 C297.954048,63.5961925 297.690379,63.7060547 297.377878,63.7060547 L293.994089,63.7060547 L293.994089,70.546875 C293.994089,71.894538 294.221137,72.8002906 294.675241,73.2641602 C295.129345,73.7280297 295.849552,73.9599609 296.835885,73.9599609 C297.216747,73.9599609 297.680609,73.8623057 298.227487,73.6669922 C298.510692,73.5595698 298.793892,73.5668939 299.077096,73.6889648 C299.360301,73.8110358 299.555612,74.0136705 299.663034,74.296875 Z M314.970565,67.1191406 L314.970565,74.8535156 C314.970565,75.1660172 314.860703,75.4296864 314.640976,75.6445312 C314.421248,75.8593761 314.16002,75.9667969 313.857284,75.9667969 C313.544783,75.9667969 313.278672,75.8569347 313.058944,75.637207 C312.839217,75.4174794 312.729354,75.1562515 312.729354,74.8535156 L312.729354,67.1191406 C312.729354,65.9277284 312.433947,65.0219758 311.843124,64.4018555 C311.252301,63.7817352 310.38561,63.4716797 309.243026,63.4716797 C308.305522,63.4716797 307.455921,63.6889627 306.694198,64.1235352 C305.932476,64.5581076 305.336778,65.0097633 304.907089,65.4785156 L304.907089,74.8828125 C304.907089,75.1953141 304.799668,75.4589833 304.584823,75.6738281 C304.369978,75.8886729 304.106309,75.9960937 303.793808,75.9960937 C303.481306,75.9960937 303.217637,75.8886729 303.002792,75.6738281 C302.787947,75.4589833 302.680526,75.1953141 302.680526,74.8828125 L302.680526,56.7919922 C302.680526,56.4892563 302.787947,56.2280284 303.002792,56.0083008 C303.217637,55.7885731 303.481306,55.6787109 303.793808,55.6787109 C304.106309,55.6787109 304.369978,55.7885731 304.584823,56.0083008 C304.799668,56.2280284 304.907089,56.4892563 304.907089,56.7919922 L304.907089,62.6806641 C306.313346,61.7138624 307.758644,61.2304687 309.243026,61.2304687 C311.000848,61.2304687 312.394877,61.7578072 313.425155,62.8125 C314.455434,63.8671928 314.970565,65.3027253 314.970565,67.1191406 Z M331.786886,68.3056641 C331.786886,68.5888686 331.691672,68.8305654 331.501241,69.0307617 C331.310811,69.230958 331.078879,69.3359375 330.805441,69.3457031 L321.137472,69.9462891 C321.303488,71.264655 321.808854,72.2827113 322.653585,73.0004883 C323.498316,73.7182653 324.570083,74.0771484 325.868917,74.0771484 C326.835719,74.0771484 327.753678,73.9111345 328.622823,73.5791016 C328.896262,73.4716792 329.169697,73.4716792 329.443136,73.5791016 C329.716575,73.686524 329.907003,73.872069 330.014425,74.1357422 C330.131613,74.4091811 330.136496,74.6801744 330.029073,74.9487305 C329.921651,75.2172865 329.731223,75.4052729 329.457784,75.5126953 C328.354263,75.9619163 327.157986,76.1865234 325.868917,76.1865234 C323.798594,76.1865234 322.133572,75.5346745 320.8738,74.230957 C319.614028,72.9272396 318.984152,71.2402447 318.984152,69.1699219 L318.984152,68.0273438 C318.984152,67.1679645 319.128193,66.3354532 319.41628,65.5297852 C319.704368,64.7241171 320.11452,63.9990267 320.646749,63.3544922 C321.178978,62.7099577 321.86989,62.1948261 322.719503,61.809082 C323.569117,61.4233379 324.51149,61.2304688 325.546652,61.2304688 C327.470489,61.2304688 328.99147,61.8627866 330.10964,63.1274414 C331.227809,64.3920962 331.786886,66.1181531 331.786886,68.3056641 Z M321.093527,67.8515625 L329.633566,67.3242188 C329.33083,64.6679555 327.968539,63.3398438 325.546652,63.3398438 C324.599381,63.3398438 323.786401,63.5595681 323.107687,63.9990234 C322.428972,64.4384788 321.933372,64.9877897 321.62087,65.6469727 C321.308369,66.3061556 321.132589,67.0410116 321.093527,67.8515625 Z M354.814058,56.9238281 C354.814058,57.2363297 354.701755,57.5024403 354.477144,57.722168 C354.252534,57.9418956 353.988864,58.0517578 353.686129,58.0517578 L345.219332,58.0517578 L345.219332,64.8339844 L352.411715,64.8339844 C352.724216,64.8339844 352.990327,64.9438466 353.210054,65.1635742 C353.429782,65.3833019 353.539644,65.6445297 353.539644,65.9472656 C353.539644,66.2500015 353.429782,66.5112294 353.210054,66.730957 C352.990327,66.9506847 352.724216,67.0605469 352.411715,67.0605469 L345.219332,67.0605469 L345.219332,73.7402344 L353.466402,73.7402344 C353.778904,73.7402344 354.042573,73.8476552 354.257418,74.0625 C354.472262,74.2773448 354.579683,74.5410141 354.579683,74.8535156 C354.579683,75.1660172 354.472262,75.4296864 354.257418,75.6445312 C354.042573,75.8593761 353.778904,75.9667969 353.466402,75.9667969 L344.10605,75.9667969 C343.803315,75.9667969 343.542087,75.8593761 343.322359,75.6445312 C343.102631,75.4296864 342.992769,75.1660172 342.992769,74.8535156 L342.992769,56.9238281 C342.992769,56.6113266 343.102631,56.3476573 343.322359,56.1328125 C343.542087,55.9179677 343.803315,55.8105469 344.10605,55.8105469 L353.686129,55.8105469 C353.99863,55.8105469 354.264741,55.9204091 354.484468,56.1401367 C354.704196,56.3598644 354.814058,56.6210922 354.814058,56.9238281 Z M370.341316,62.578125 L370.341316,74.8535156 C370.341316,75.1660172 370.231454,75.4296864 370.011726,75.6445312 C369.791999,75.8593761 369.530771,75.9667969 369.228035,75.9667969 C368.925299,75.9667969 368.664071,75.8593761 368.444344,75.6445312 C368.224616,75.4296864 368.114754,75.1660172 368.114754,74.8535156 L368.114754,74.765625 C366.728028,75.7128954 365.287613,76.1865234 363.793465,76.1865234 C362.035643,76.1865234 360.666028,75.6738333 359.684578,74.6484375 C358.703128,73.6230417 358.21241,72.2021575 358.21241,70.3857422 L358.21241,62.578125 C358.21241,62.2656234 358.322272,62.0019542 358.542,61.7871094 C358.761728,61.5722646 359.022955,61.4648437 359.325691,61.4648437 C359.628427,61.4648437 359.889655,61.5722646 360.109383,61.7871094 C360.32911,62.0019542 360.438973,62.2656234 360.438973,62.578125 L360.438973,70.3857422 C360.438973,71.5966857 360.712407,72.4926729 361.259285,73.0737305 C361.806163,73.6547881 362.650881,73.9453125 363.793465,73.9453125 C364.740735,73.9453125 365.592777,73.7329123 366.349617,73.3081055 C367.106457,72.8832987 367.69483,72.4462913 368.114754,71.9970703 L368.114754,62.578125 C368.114754,62.2656234 368.224616,62.0019542 368.444344,61.7871094 C368.664071,61.5722646 368.925299,61.4648437 369.228035,61.4648437 C369.530771,61.4648437 369.791999,61.5722646 370.011726,61.7871094 C370.231454,62.0019542 370.341316,62.2656234 370.341316,62.578125 Z M383.598067,63.3691406 C383.43205,63.6425795 383.20256,63.8159176 382.90959,63.8891602 C382.61662,63.9624027 382.333419,63.9208992 382.059981,63.7646484 C381.708416,63.569335 381.312912,63.4716797 380.873457,63.4716797 C380.521893,63.4716797 380.016527,63.5717763 379.357344,63.7719727 C378.698161,63.972169 378.075609,64.2041002 377.489668,64.4677734 L377.489668,74.8535156 C377.489668,75.1660172 377.382247,75.4296864 377.167402,75.6445312 C376.952558,75.8593761 376.688888,75.9667969 376.376387,75.9667969 C376.063885,75.9667969 375.800216,75.8593761 375.585371,75.6445312 C375.370526,75.4296864 375.263106,75.1660172 375.263106,74.8535156 L375.263106,62.578125 C375.263106,62.2656234 375.370526,62.0019542 375.585371,61.7871094 C375.800216,61.5722646 376.063885,61.4648438 376.376387,61.4648438 C376.600997,61.4648438 376.808515,61.5283197 376.998945,61.6552734 C377.189376,61.7822272 377.323652,61.9482412 377.401777,62.1533203 C378.866629,61.5478485 380.023844,61.2451172 380.873457,61.2451172 C381.723071,61.2451172 382.49943,61.4453105 383.202559,61.8457031 C383.466232,62.0019539 383.637129,62.2290024 383.715254,62.5268555 C383.793379,62.8247085 383.754317,63.1054674 383.598067,63.3691406 Z M399.901692,68.6572266 C399.901692,70.8056748 399.220546,72.5976491 397.858235,74.0332031 C396.495923,75.4687572 394.799163,76.1865234 392.767903,76.1865234 C390.736643,76.1865234 389.042324,75.4785227 387.684895,74.0625 C386.327466,72.6464773 385.648762,70.8789168 385.648762,68.7597656 C385.648762,67.3535086 385.958818,66.0742245 386.578938,64.921875 C387.199058,63.7695255 388.0511,62.8662142 389.13509,62.2119141 C390.21908,61.5576139 391.430005,61.2304688 392.767903,61.2304688 C394.799163,61.2304688 396.495923,61.9384695 397.858235,63.3544922 C399.220546,64.7705149 399.901692,66.5380753 399.901692,68.6572266 Z M397.660481,68.6572266 C397.660481,67.1533128 397.19906,65.9130908 396.276203,64.9365234 C395.353347,63.9599561 394.183925,63.4716797 392.767903,63.4716797 C391.35188,63.4716797 390.182458,63.9697216 389.259602,64.9658203 C388.336746,65.961919 387.875325,67.2265548 387.875325,68.7597656 C387.875325,70.2636794 388.336746,71.5039014 389.259602,72.4804688 C390.182458,73.4570361 391.35188,73.9453125 392.767903,73.9453125 C394.183925,73.9453125 395.353347,73.4472706 396.276203,72.4511719 C397.19906,71.4550731 397.660481,70.1904374 397.660481,68.6572266 Z M416.512934,68.7304688 C416.512934,70.9668081 415.875733,72.7734306 414.601313,74.1503906 C413.326893,75.5273506 411.649663,76.2158203 409.569575,76.2158203 C408.76879,76.2158203 407.645754,75.9716821 406.200434,75.4833984 L406.200434,80.390625 C406.200434,80.7031266 406.090572,80.9692372 405.870844,81.1889648 C405.651117,81.4086925 405.389889,81.5185547 405.087153,81.5185547 C404.784417,81.5185547 404.523189,81.4086925 404.303461,81.1889648 C404.083734,80.9692372 403.973872,80.7031266 403.973872,80.390625 L403.973872,62.5634766 C403.973872,62.2607407 404.083734,61.9995128 404.303461,61.7797852 C404.523189,61.5600575 404.784417,61.4501953 405.087153,61.4501953 C405.526608,61.4501953 405.853753,61.6406231 406.068598,62.0214844 C407.572512,61.5039037 408.739493,61.2451172 409.569575,61.2451172 C411.649663,61.2451172 413.326893,61.9311455 414.601313,63.3032227 C415.875733,64.6752998 416.512934,66.4843638 416.512934,68.7304688 Z M414.286372,68.7304688 C414.286372,67.0800699 413.868895,65.7910203 413.03393,64.8632812 C412.198965,63.9355422 411.044192,63.4716797 409.569575,63.4716797 C409.188713,63.4716797 408.663816,63.5595694 407.994868,63.7353516 C407.325919,63.9111337 406.727781,64.1015615 406.200434,64.3066406 L406.200434,73.1542969 C407.65552,73.7011746 408.778555,73.9746094 409.569575,73.9746094 C411.044192,73.9746094 412.198965,73.5107468 413.03393,72.5830078 C413.868895,71.6552688 414.286372,70.371102 414.286372,68.7304688 Z M432.62613,68.3056641 C432.62613,68.5888686 432.530916,68.8305654 432.340485,69.0307617 C432.150055,69.230958 431.918123,69.3359375 431.644684,69.3457031 L421.976716,69.9462891 C422.142732,71.264655 422.648098,72.2827113 423.492829,73.0004883 C424.33756,73.7182653 425.409326,74.0771484 426.708161,74.0771484 C427.674963,74.0771484 428.592922,73.9111345 429.462067,73.5791016 C429.735506,73.4716792 430.008941,73.4716792 430.28238,73.5791016 C430.555819,73.686524 430.746246,73.872069 430.853669,74.1357422 C430.970857,74.4091811 430.97574,74.6801744 430.868317,74.9487305 C430.760895,75.2172865 430.570467,75.4052729 430.297028,75.5126953 C429.193507,75.9619163 427.99723,76.1865234 426.708161,76.1865234 C424.637838,76.1865234 422.972816,75.5346745 421.713044,74.230957 C420.453272,72.9272396 419.823395,71.2402447 419.823395,69.1699219 L419.823395,68.0273438 C419.823395,67.1679645 419.967437,66.3354532 420.255524,65.5297852 C420.543612,64.7241171 420.953764,63.9990267 421.485993,63.3544922 C422.018222,62.7099577 422.709133,62.1948261 423.558747,61.809082 C424.40836,61.4233379 425.350734,61.2304688 426.385895,61.2304688 C428.309733,61.2304688 429.830714,61.8627866 430.948884,63.1274414 C432.067053,64.3920962 432.62613,66.1181531 432.62613,68.3056641 Z M421.93277,67.8515625 L430.472809,67.3242188 C430.170073,64.6679555 428.807782,63.3398438 426.385895,63.3398438 C425.438625,63.3398438 424.625645,63.5595681 423.94693,63.9990234 C423.268216,64.4384788 422.772616,64.9877897 422.460114,65.6469727 C422.147613,66.3061556 421.971833,67.0410116 421.93277,67.8515625 Z M446.263739,65.2734375 L446.263739,74.9121094 C446.263739,75.2050796 446.15876,75.4541005 445.948798,75.6591797 C445.738836,75.8642588 445.487374,75.9667969 445.194403,75.9667969 C444.950262,75.9667969 444.732979,75.891114 444.542548,75.7397461 C444.352117,75.5883781 444.222724,75.3857435 444.154364,75.1318359 C442.416074,75.8349645 441.048901,76.1865234 440.052802,76.1865234 C438.734436,76.1865234 437.648021,75.7666058 436.793524,74.9267578 C435.939028,74.0869099 435.511786,73.0273501 435.511786,71.7480469 C435.511786,71.2304662 435.58991,70.7666036 435.746161,70.3564453 C435.902412,69.946287 436.105047,69.6044936 436.354071,69.3310547 C436.603096,69.0576158 436.915593,68.8183604 437.291571,68.6132812 C437.66755,68.4082021 438.045964,68.2470709 438.426825,68.1298828 C438.807687,68.0126947 439.23737,67.9101567 439.715888,67.8222656 L444.139716,67.0019531 L444.139716,65.2734375 C444.139716,64.7460911 443.844309,64.2919941 443.253485,63.9111328 C442.662662,63.5302715 442.030344,63.3398438 441.356513,63.3398438 C440.643619,63.3398438 439.242265,63.5595681 437.152411,63.9990234 C436.869207,64.0576175 436.605537,64.0087898 436.361396,63.8525391 C436.117254,63.6962883 435.961005,63.4765639 435.892646,63.1933594 C435.834051,62.9101548 435.882879,62.6440442 436.03913,62.3950195 C436.195381,62.1459948 436.415105,61.9921878 436.69831,61.9335938 C438.944415,61.4746071 440.497133,61.2451172 441.356513,61.2451172 C442.157298,61.2451172 442.928775,61.4111312 443.670966,61.7431641 C444.413157,62.075197 445.030827,62.5537078 445.523993,63.1787109 C446.01716,63.8037141 446.263739,64.5019493 446.263739,65.2734375 Z M444.139716,72.8320312 L444.139716,69.140625 L440.096747,69.9023438 C439.110414,70.0878916 438.451241,70.3149401 438.119208,70.5834961 C437.787175,70.8520521 437.621161,71.2402318 437.621161,71.7480469 C437.621161,72.4511754 437.843327,73.0151346 438.287665,73.4399414 C438.732003,73.8647482 439.320376,74.0771484 440.052802,74.0771484 C441.000072,74.0771484 442.362363,73.6621135 444.139716,72.8320312 Z M463.226544,66.9580078 L463.226544,74.8535156 C463.226544,75.1660172 463.116682,75.4296864 462.896954,75.6445312 C462.677227,75.8593761 462.415999,75.9667969 462.113263,75.9667969 C461.810527,75.9667969 461.549299,75.8593761 461.329572,75.6445312 C461.109844,75.4296864 460.999982,75.1660172 460.999982,74.8535156 L460.999982,66.9580078 C460.999982,65.7372986 460.746078,64.851077 460.238263,64.2993164 C459.730448,63.7475558 458.915026,63.4716797 457.791974,63.4716797 C457.118142,63.4716797 456.446762,63.6059557 455.777814,63.8745117 C455.108865,64.1430677 454.596175,64.4091784 454.239728,64.6728516 C453.883281,64.9365248 453.573225,65.200194 453.309552,65.4638672 L453.309552,74.8535156 C453.309552,75.1660172 453.202131,75.4296864 452.987286,75.6445312 C452.772442,75.8593761 452.508772,75.9667969 452.196271,75.9667969 C451.883769,75.9667969 451.6201,75.8593761 451.405255,75.6445312 C451.19041,75.4296864 451.08299,75.1660172 451.08299,74.8535156 L451.08299,62.578125 C451.08299,62.2656234 451.19041,62.0019542 451.405255,61.7871094 C451.6201,61.5722646 451.883769,61.4648438 452.196271,61.4648438 C452.508772,61.4648438 452.772442,61.5722646 452.987286,61.7871094 C453.202131,62.0019542 453.309552,62.2656234 453.309552,62.578125 L453.309552,62.7246094 C454.754872,61.7382763 456.248997,61.2451172 457.791974,61.2451172 C459.549795,61.2451172 460.894997,61.7382763 461.827618,62.7246094 C462.76024,63.7109424 463.226544,65.1220611 463.226544,66.9580078 Z M491.732232,56.9238281 L491.717584,66.9433594 C491.707818,69.7558734 490.958314,71.997062 489.469049,73.6669922 C487.979783,75.3369224 485.985174,76.171875 483.485162,76.171875 C480.985149,76.171875 478.988099,75.334481 477.493951,73.659668 C475.999803,71.9848549 475.25274,69.7461078 475.25274,66.9433594 L475.25274,56.9238281 C475.25274,56.6113266 475.360161,56.3476573 475.575006,56.1328125 C475.78985,55.9179677 476.05352,55.8105469 476.366021,55.8105469 C476.678523,55.8105469 476.942192,55.9179677 477.157037,56.1328125 C477.371882,56.3476573 477.479302,56.6113266 477.479302,56.9238281 L477.493951,66.9433594 C477.493951,69.1308703 478.021289,70.8447204 479.075982,72.0849609 C480.130675,73.3252015 481.600387,73.9453125 483.485162,73.9453125 C485.360171,73.9453125 486.829883,73.3252015 487.894342,72.0849609 C488.9588,70.8447204 489.491021,69.1308703 489.491021,66.9433594 L489.491021,56.9238281 C489.491021,56.6113266 489.598442,56.3476573 489.813287,56.1328125 C490.028132,55.9179677 490.291801,55.8105469 490.604302,55.8105469 C490.916804,55.8105469 491.182915,55.9204091 491.402642,56.1401367 C491.62237,56.3598644 491.732232,56.6210922 491.732232,56.9238281 Z M508.753631,66.9580078 L508.753631,74.8535156 C508.753631,75.1660172 508.643769,75.4296864 508.424041,75.6445312 C508.204313,75.8593761 507.943085,75.9667969 507.64035,75.9667969 C507.337614,75.9667969 507.076386,75.8593761 506.856658,75.6445312 C506.63693,75.4296864 506.527068,75.1660172 506.527068,74.8535156 L506.527068,66.9580078 C506.527068,65.7372986 506.273165,64.851077 505.76535,64.2993164 C505.257535,63.7475558 504.442113,63.4716797 503.31906,63.4716797 C502.645229,63.4716797 501.973849,63.6059557 501.3049,63.8745117 C500.635952,64.1430677 500.123261,64.4091784 499.766814,64.6728516 C499.410367,64.9365248 499.100312,65.200194 498.836639,65.4638672 L498.836639,74.8535156 C498.836639,75.1660172 498.729218,75.4296864 498.514373,75.6445312 C498.299528,75.8593761 498.035859,75.9667969 497.723357,75.9667969 C497.410856,75.9667969 497.147187,75.8593761 496.932342,75.6445312 C496.717497,75.4296864 496.610076,75.1660172 496.610076,74.8535156 L496.610076,62.578125 C496.610076,62.2656234 496.717497,62.0019542 496.932342,61.7871094 C497.147187,61.5722646 497.410856,61.4648438 497.723357,61.4648438 C498.035859,61.4648438 498.299528,61.5722646 498.514373,61.7871094 C498.729218,62.0019542 498.836639,62.2656234 498.836639,62.578125 L498.836639,62.7246094 C500.281958,61.7382763 501.776084,61.2451172 503.31906,61.2451172 C505.076882,61.2451172 506.422083,61.7382763 507.354705,62.7246094 C508.287327,63.7109424 508.753631,65.1220611 508.753631,66.9580078 Z M516.136358,55.7519531 L515.579717,56.3964844 C515.335575,56.6796889 515.02552,56.8359374 514.649541,56.8652344 C514.273563,56.8945314 513.943976,56.7871106 513.660772,56.5429688 C513.377567,56.2988269 513.218877,55.9887714 513.184697,55.612793 C513.150518,55.2368145 513.255497,54.907228 513.499639,54.6240234 L514.056279,53.9794922 C514.300421,53.6962876 514.610477,53.5375978 514.986455,53.503418 C515.362434,53.4692381 515.69202,53.5742175 515.975225,53.8183594 C516.258429,54.0722669 516.417119,54.3872052 516.451299,54.7631836 C516.485479,55.139162 516.380499,55.4687486 516.136358,55.7519531 Z M515.931279,62.578125 L515.931279,74.8535156 C515.931279,75.1660172 515.821417,75.4296864 515.60169,75.6445312 C515.381962,75.8593761 515.120734,75.9667969 514.817998,75.9667969 C514.515262,75.9667969 514.254034,75.8593761 514.034307,75.6445312 C513.814579,75.4296864 513.704717,75.1660172 513.704717,74.8535156 L513.704717,62.578125 C513.704717,62.2656234 513.814579,62.0019542 514.034307,61.7871094 C514.254034,61.5722646 514.515262,61.4648437 514.817998,61.4648437 C515.120734,61.4648437 515.381962,61.5722646 515.60169,61.7871094 C515.821417,62.0019542 515.931279,62.2656234 515.931279,62.578125 Z M534.373577,68.6572266 C534.373577,70.8056748 533.692431,72.5976491 532.33012,74.0332031 C530.967808,75.4687572 529.271048,76.1865234 527.239788,76.1865234 C525.208527,76.1865234 523.514208,75.4785227 522.15678,74.0625 C520.799351,72.6464773 520.120647,70.8789168 520.120647,68.7597656 C520.120647,67.3535086 520.430702,66.0742245 521.050823,64.921875 C521.670943,63.7695255 522.522985,62.8662142 523.606975,62.2119141 C524.690965,61.5576139 525.90189,61.2304688 527.239788,61.2304688 C529.271048,61.2304688 530.967808,61.9384695 532.33012,63.3544922 C533.692431,64.7705149 534.373577,66.5380753 534.373577,68.6572266 Z M532.132366,68.6572266 C532.132366,67.1533128 531.670944,65.9130908 530.748088,64.9365234 C529.825232,63.9599561 528.65581,63.4716797 527.239788,63.4716797 C525.823765,63.4716797 524.654343,63.9697216 523.731487,64.9658203 C522.808631,65.961919 522.347209,67.2265548 522.347209,68.7597656 C522.347209,70.2636794 522.808631,71.5039014 523.731487,72.4804688 C524.654343,73.4570361 525.823765,73.9453125 527.239788,73.9453125 C528.65581,73.9453125 529.825232,73.4472706 530.748088,72.4511719 C531.670944,71.4550731 532.132366,70.1904374 532.132366,68.6572266 Z M550.574663,66.9580078 L550.574663,74.8535156 C550.574663,75.1660172 550.464801,75.4296864 550.245073,75.6445312 C550.025345,75.8593761 549.764117,75.9667969 549.461381,75.9667969 C549.158646,75.9667969 548.897418,75.8593761 548.67769,75.6445312 C548.457962,75.4296864 548.3481,75.1660172 548.3481,74.8535156 L548.3481,66.9580078 C548.3481,65.7372986 548.094197,64.851077 547.586381,64.2993164 C547.078566,63.7475558 546.263145,63.4716797 545.140092,63.4716797 C544.466261,63.4716797 543.794881,63.6059557 543.125932,63.8745117 C542.456984,64.1430677 541.944293,64.4091784 541.587846,64.6728516 C541.231399,64.9365248 540.921344,65.200194 540.657671,65.4638672 L540.657671,74.8535156 C540.657671,75.1660172 540.55025,75.4296864 540.335405,75.6445312 C540.12056,75.8593761 539.856891,75.9667969 539.544389,75.9667969 C539.231888,75.9667969 538.968218,75.8593761 538.753374,75.6445312 C538.538529,75.4296864 538.431108,75.1660172 538.431108,74.8535156 L538.431108,62.578125 C538.431108,62.2656234 538.538529,62.0019542 538.753374,61.7871094 C538.968218,61.5722646 539.231888,61.4648438 539.544389,61.4648438 C539.856891,61.4648438 540.12056,61.5722646 540.335405,61.7871094 C540.55025,62.0019542 540.657671,62.2656234 540.657671,62.578125 L540.657671,62.7246094 C542.10299,61.7382763 543.597116,61.2451172 545.140092,61.2451172 C546.897914,61.2451172 548.243115,61.7382763 549.175737,62.7246094 C550.108359,63.7109424 550.574663,65.1220611 550.574663,66.9580078 Z" id="Co-financed-by-the-C" fill="#FFFFFF"></path>
        </g>
    </g>
</svg>